<svg width="20" height="14" viewBox="0 0 20 14" fill="none" xmlns="http://www.w3.org/2000/svg">
<rect width="19.3079" height="13.2206" rx="6.61032" transform="matrix(0.999927 0.0120952 -0.0035288 0.999994 0.0466309 0)" fill="white" fill-opacity="0.25"/>
<path d="M7.96985 7.66933L5.70037 7.64188L5.22684 8.7039L4.59846 8.6963L6.54747 4.44887L7.15145 4.45617L9.07643 8.75047L8.43585 8.74272L7.96985 7.66933ZM7.75805 7.17865L6.84422 5.0748L5.91562 7.15636L7.75805 7.17865ZM10.1988 6.07331C10.3012 5.88743 10.4522 5.74689 10.6518 5.65169C10.8514 5.55648 11.0936 5.51059 11.3783 5.51404L11.3763 6.08145C11.3438 6.07699 11.2991 6.07441 11.2421 6.07372C10.9249 6.06989 10.6744 6.16245 10.4907 6.3514C10.3111 6.53634 10.2207 6.80371 10.2194 7.15351L10.2137 8.76422L9.62807 8.75714L9.63948 5.52351L10.2008 5.5303L10.1988 6.07331ZM14.0384 8.62134C13.9527 8.69352 13.8468 8.74919 13.7206 8.78834C13.5943 8.82342 13.4641 8.84015 13.3299 8.83853C13.0045 8.83459 12.7527 8.74409 12.5743 8.56702C12.396 8.38996 12.3074 8.13873 12.3086 7.81333L12.3148 6.03789L11.7658 6.03125L11.7675 5.54925L12.3165 5.55589L12.319 4.84816L12.9047 4.85524L12.9022 5.56298L13.8295 5.5742L13.8278 6.05619L12.9005 6.04497L12.8943 7.79601C12.8937 7.97091 12.9359 8.10565 13.021 8.20024C13.1102 8.29487 13.2361 8.34317 13.3988 8.34514C13.5777 8.34731 13.7304 8.29831 13.8569 8.19815L14.0384 8.62134Z" fill="white"/>
</svg>
