<svg width="42" height="14" viewBox="0 0 42 14" fill="none" xmlns="http://www.w3.org/2000/svg">
<rect x="0.0627441" y="0.689941" width="41.9373" height="13.2208" rx="6.61042" fill="white" fill-opacity="0.25"/>
<path d="M7.03178 9.39488C6.77553 9.39488 6.53758 9.342 6.31794 9.23625C6.09829 9.12643 5.92136 8.97389 5.78713 8.77866L6.141 8.36377C6.37691 8.70137 6.67384 8.87017 7.03178 8.87017C7.27176 8.87017 7.45276 8.79696 7.57479 8.65053C7.70088 8.5041 7.76393 8.28852 7.76393 8.0038V5.60602H6.22032V5.07522H8.36795V7.97329C8.36795 8.44512 8.25406 8.80103 8.02628 9.04101C7.80257 9.27692 7.47107 9.39488 7.03178 9.39488ZM10.7029 6.08192C11.1503 6.08192 11.4919 6.19174 11.7279 6.41138C11.9678 6.63103 12.0878 6.95846 12.0878 7.39368V9.34607H11.5326V8.91898C11.435 9.06948 11.2947 9.1854 11.1116 9.26675C10.9327 9.34404 10.7191 9.38268 10.471 9.38268C10.109 9.38268 9.81818 9.29523 9.59853 9.12032C9.38296 8.94542 9.27517 8.71561 9.27517 8.43089C9.27517 8.14616 9.37889 7.91838 9.58633 7.74755C9.79377 7.57265 10.1232 7.4852 10.5747 7.4852H11.5021V7.36927C11.5021 7.11709 11.4289 6.92389 11.2825 6.78966C11.136 6.65543 10.9205 6.58832 10.6357 6.58832C10.4446 6.58832 10.2575 6.62086 10.0744 6.68594C9.89139 6.74695 9.73683 6.83033 9.61074 6.93609L9.36669 6.4968C9.53345 6.36257 9.73276 6.26089 9.96461 6.19174C10.1965 6.11852 10.4425 6.08192 10.7029 6.08192ZM10.5686 8.93119C10.7923 8.93119 10.9855 8.88238 11.1482 8.78476C11.3109 8.68307 11.4289 8.54071 11.5021 8.35767V7.90618H10.5991C10.1029 7.90618 9.85478 8.07295 9.85478 8.40648C9.85478 8.56918 9.91783 8.69731 10.0439 8.79086C10.17 8.88441 10.3449 8.93119 10.5686 8.93119ZM15.9736 6.11242L14.5582 9.34607H13.9602L12.5448 6.11242H13.1549L14.2653 8.70544L15.4001 6.11242H15.9736ZM17.5965 6.08192C18.0439 6.08192 18.3856 6.19174 18.6215 6.41138C18.8615 6.63103 18.9815 6.95846 18.9815 7.39368V9.34607H18.4263V8.91898C18.3287 9.06948 18.1883 9.1854 18.0053 9.26675C17.8263 9.34404 17.6128 9.38268 17.3647 9.38268C17.0027 9.38268 16.7118 9.29523 16.4922 9.12032C16.2766 8.94542 16.1688 8.71561 16.1688 8.43089C16.1688 8.14616 16.2726 7.91838 16.48 7.74755C16.6874 7.57265 17.0169 7.4852 17.4684 7.4852H18.3958V7.36927C18.3958 7.11709 18.3226 6.92389 18.1761 6.78966C18.0297 6.65543 17.8141 6.58832 17.5294 6.58832C17.3382 6.58832 17.1511 6.62086 16.9681 6.68594C16.7851 6.74695 16.6305 6.83033 16.5044 6.93609L16.2603 6.4968C16.4271 6.36257 16.6264 6.26089 16.8583 6.19174C17.0901 6.11852 17.3362 6.08192 17.5965 6.08192ZM17.4623 8.93119C17.686 8.93119 17.8792 8.88238 18.0419 8.78476C18.2046 8.68307 18.3226 8.54071 18.3958 8.35767V7.90618H17.4928C16.9966 7.90618 16.7484 8.07295 16.7484 8.40648C16.7484 8.56918 16.8115 8.69731 16.9376 8.79086C17.0637 8.88441 17.2386 8.93119 17.4623 8.93119ZM20.9928 9.38268C20.7284 9.38268 20.4742 9.3481 20.2301 9.27896C19.9861 9.20574 19.7949 9.11422 19.6566 9.0044L19.9007 8.54071C20.043 8.6424 20.2159 8.72374 20.4193 8.78476C20.6227 8.84577 20.8281 8.87628 21.0355 8.87628C21.548 8.87628 21.8043 8.72985 21.8043 8.43699C21.8043 8.33937 21.7697 8.26209 21.7005 8.20514C21.6314 8.1482 21.5439 8.10752 21.4382 8.08312C21.3365 8.05464 21.1901 8.02414 20.9989 7.9916C20.7386 7.95092 20.525 7.90415 20.3583 7.85127C20.1956 7.79839 20.0552 7.70891 19.9373 7.58282C19.8193 7.45673 19.7604 7.27979 19.7604 7.05201C19.7604 6.75915 19.8824 6.52527 20.1264 6.35037C20.3705 6.1714 20.6979 6.08192 21.1087 6.08192C21.3243 6.08192 21.5399 6.10836 21.7555 6.16123C21.971 6.21411 22.148 6.28529 22.2863 6.37478L22.0361 6.83847C21.7717 6.66763 21.4606 6.58222 21.1026 6.58222C20.8545 6.58222 20.6654 6.62289 20.5352 6.70424C20.405 6.78559 20.34 6.89338 20.34 7.02761C20.34 7.13336 20.3766 7.21674 20.4498 7.27776C20.523 7.33877 20.6125 7.38351 20.7182 7.41198C20.8281 7.44046 20.9806 7.47299 21.1758 7.5096C21.4362 7.55434 21.6456 7.60315 21.8043 7.65603C21.967 7.70484 22.1053 7.79026 22.2191 7.91228C22.333 8.03431 22.39 8.20514 22.39 8.42479C22.39 8.71764 22.2639 8.95152 22.0117 9.12643C21.7636 9.29726 21.424 9.38268 20.9928 9.38268ZM24.5314 9.38268C24.2019 9.38268 23.907 9.3115 23.6467 9.16913C23.3904 9.02677 23.1891 8.83153 23.0427 8.58342C22.8962 8.33123 22.823 8.04651 22.823 7.72925C22.823 7.41198 22.8962 7.12929 23.0427 6.88118C23.1891 6.62899 23.3904 6.43375 23.6467 6.29546C23.907 6.1531 24.2019 6.08192 24.5314 6.08192C24.8242 6.08192 25.0845 6.1409 25.3123 6.25885C25.5442 6.37681 25.7231 6.54764 25.8492 6.77135L25.4038 7.05811C25.3022 6.90355 25.1761 6.78762 25.0256 6.71034C24.8751 6.63306 24.7083 6.59442 24.5253 6.59442C24.3138 6.59442 24.1226 6.6412 23.9517 6.73475C23.785 6.8283 23.6528 6.96253 23.5552 7.13743C23.4616 7.30826 23.4148 7.50553 23.4148 7.72925C23.4148 7.95703 23.4616 8.15837 23.5552 8.33327C23.6528 8.5041 23.785 8.63629 23.9517 8.72985C24.1226 8.8234 24.3138 8.87017 24.5253 8.87017C24.7083 8.87017 24.8751 8.83153 25.0256 8.75425C25.1761 8.67697 25.3022 8.56105 25.4038 8.40648L25.8492 8.68714C25.7231 8.91085 25.5442 9.08372 25.3123 9.20574C25.0845 9.3237 24.8242 9.38268 24.5314 9.38268ZM27.1689 6.65543C27.2705 6.46833 27.421 6.32597 27.6203 6.22835C27.8196 6.13073 28.0617 6.08192 28.3464 6.08192V6.64933C28.3138 6.64526 28.2691 6.64323 28.2122 6.64323C27.8949 6.64323 27.6447 6.73881 27.4617 6.92999C27.2827 7.11709 27.1933 7.38554 27.1933 7.73535V9.34607H26.6075V6.11242H27.1689V6.65543ZM29.0683 6.11242H29.654V9.34607H29.0683V6.11242ZM29.3611 5.4901C29.2473 5.4901 29.1517 5.45349 29.0744 5.38028C29.0012 5.30706 28.9646 5.21758 28.9646 5.11182C28.9646 5.00607 29.0012 4.91658 29.0744 4.84337C29.1517 4.76609 29.2473 4.72745 29.3611 4.72745C29.475 4.72745 29.5686 4.76405 29.6418 4.83727C29.7191 4.90642 29.7577 4.99387 29.7577 5.09962C29.7577 5.20944 29.7191 5.30299 29.6418 5.38028C29.5686 5.45349 29.475 5.4901 29.3611 5.4901ZM32.4868 6.08192C32.8 6.08192 33.0806 6.15106 33.3287 6.28936C33.5769 6.42765 33.7701 6.62086 33.9084 6.86897C34.0507 7.11709 34.1219 7.40385 34.1219 7.72925C34.1219 8.05464 34.0507 8.34344 33.9084 8.59562C33.7701 8.84374 33.5769 9.03694 33.3287 9.17524C33.0806 9.31353 32.8 9.38268 32.4868 9.38268C32.2549 9.38268 32.0414 9.33793 31.8462 9.24845C31.655 9.15897 31.4923 9.02881 31.3581 8.85797V10.5297H30.7723V6.11242H31.3337V6.62493C31.4638 6.44596 31.6285 6.31173 31.8278 6.22224C32.0272 6.12869 32.2468 6.08192 32.4868 6.08192ZM32.438 8.87017C32.6454 8.87017 32.8305 8.8234 32.9932 8.72985C33.1599 8.63223 33.2901 8.498 33.3837 8.32717C33.4813 8.15226 33.5301 7.95296 33.5301 7.72925C33.5301 7.50553 33.4813 7.30826 33.3837 7.13743C33.2901 6.96253 33.1599 6.8283 32.9932 6.73475C32.8305 6.6412 32.6454 6.59442 32.438 6.59442C32.2346 6.59442 32.0495 6.64323 31.8828 6.74085C31.7201 6.8344 31.5899 6.96659 31.4923 7.13743C31.3987 7.30826 31.352 7.50553 31.352 7.72925C31.352 7.95296 31.3987 8.15226 31.4923 8.32717C31.5858 8.498 31.716 8.63223 31.8828 8.72985C32.0495 8.8234 32.2346 8.87017 32.438 8.87017ZM36.7493 9.15693C36.6639 9.23015 36.5582 9.28709 36.4321 9.32777C36.306 9.36437 36.1758 9.38268 36.0416 9.38268C35.7162 9.38268 35.464 9.29523 35.285 9.12032C35.1061 8.94542 35.0166 8.69527 35.0166 8.36987V6.59442H34.4675V6.11242H35.0166V5.40468H35.6023V6.11242H36.5297V6.59442H35.6023V8.34547C35.6023 8.52037 35.645 8.6546 35.7304 8.74815C35.8199 8.8417 35.946 8.88848 36.1087 8.88848C36.2877 8.88848 36.4402 8.83763 36.5663 8.73595L36.7493 9.15693Z" fill="white"/>
</svg>
