<svg width="81" height="13" viewBox="0 0 81 13" fill="none" xmlns="http://www.w3.org/2000/svg">
<rect width="81" height="13" rx="6.5" fill="#9D9D9D" fill-opacity="0.25"/>
<path d="M10.3063 4.72915C10.8594 4.72915 11.2947 4.86134 11.6119 5.12573C11.9292 5.39011 12.0878 5.75415 12.0878 6.21784C12.0878 6.68154 11.9292 7.04558 11.6119 7.30996C11.2947 7.57435 10.8594 7.70654 10.3063 7.70654H9.25075V9H8.64063V4.72915H10.3063ZM10.288 7.17574C10.6744 7.17574 10.9693 7.09439 11.1726 6.93169C11.376 6.76492 11.4777 6.52697 11.4777 6.21784C11.4777 5.90872 11.376 5.6728 11.1726 5.5101C10.9693 5.34334 10.6744 5.25995 10.288 5.25995H9.25075V7.17574H10.288ZM14.685 5.73585C15.0958 5.73585 15.4212 5.85584 15.6612 6.09582C15.9052 6.33173 16.0273 6.6795 16.0273 7.13913V9H15.4415V7.20624C15.4415 6.89305 15.3663 6.65713 15.2158 6.4985C15.0653 6.33987 14.8497 6.26055 14.5691 6.26055C14.2518 6.26055 14.0016 6.3541 13.8186 6.54121C13.6356 6.72425 13.5441 6.98863 13.5441 7.33437V9H12.9583V4.4729H13.5441V6.22395C13.6661 6.06938 13.8247 5.94939 14.0199 5.86397C14.2193 5.77856 14.4409 5.73585 14.685 5.73585ZM19.9131 5.76635L18.3451 9.32336C18.2068 9.65283 18.0441 9.88468 17.857 10.0189C17.674 10.1531 17.4523 10.2202 17.192 10.2202C17.0333 10.2202 16.8788 10.1938 16.7283 10.1409C16.5818 10.0921 16.4598 10.0189 16.3622 9.92128L16.6123 9.482C16.7791 9.64063 16.9723 9.71994 17.192 9.71994C17.3343 9.71994 17.4523 9.6813 17.5458 9.60402C17.6435 9.53081 17.7309 9.40268 17.8082 9.21964L17.9119 8.9939L16.4842 5.76635H17.0943L18.2231 8.35327L19.3396 5.76635H19.9131ZM21.3454 9.03661C21.081 9.03661 20.8268 9.00203 20.5828 8.93289C20.3387 8.85967 20.1475 8.76815 20.0092 8.65833L20.2533 8.19464C20.3957 8.29633 20.5685 8.37768 20.7719 8.43869C20.9753 8.4997 21.1807 8.53021 21.3881 8.53021C21.9006 8.53021 22.1569 8.38378 22.1569 8.09092C22.1569 7.9933 22.1223 7.91602 22.0532 7.85907C21.984 7.80213 21.8966 7.76145 21.7908 7.73705C21.6891 7.70858 21.5427 7.67807 21.3515 7.64553C21.0912 7.60485 20.8777 7.55808 20.7109 7.5052C20.5482 7.45232 20.4079 7.36284 20.2899 7.23675C20.1719 7.11066 20.113 6.93372 20.113 6.70594C20.113 6.41308 20.235 6.1792 20.479 6.0043C20.7231 5.82533 21.0505 5.73585 21.4613 5.73585C21.6769 5.73585 21.8925 5.76229 22.1081 5.81516C22.3236 5.86804 22.5006 5.93922 22.6389 6.02871L22.3887 6.4924C22.1243 6.32156 21.8132 6.23615 21.4552 6.23615C21.2071 6.23615 21.018 6.27682 20.8878 6.35817C20.7577 6.43952 20.6926 6.54731 20.6926 6.68154C20.6926 6.78729 20.7292 6.87067 20.8024 6.93169C20.8756 6.9927 20.9651 7.03744 21.0709 7.06591C21.1807 7.09439 21.3332 7.12693 21.5285 7.16353C21.7888 7.20828 21.9982 7.25708 22.1569 7.30996C22.3196 7.35877 22.4579 7.44419 22.5718 7.56621C22.6857 7.68824 22.7426 7.85907 22.7426 8.07872C22.7426 8.37157 22.6165 8.60545 22.3643 8.78036C22.1162 8.95119 21.7766 9.03661 21.3454 9.03661ZM23.4746 5.76635H24.0603V9H23.4746V5.76635ZM23.7675 5.14403C23.6536 5.14403 23.558 5.10742 23.4807 5.03421C23.4075 4.96099 23.3709 4.87151 23.3709 4.76575C23.3709 4.66 23.4075 4.57051 23.4807 4.4973C23.558 4.42002 23.6536 4.38138 23.7675 4.38138C23.8813 4.38138 23.9749 4.41798 24.0481 4.4912C24.1254 4.56035 24.164 4.6478 24.164 4.75355C24.164 4.86337 24.1254 4.95693 24.0481 5.03421C23.9749 5.10742 23.8813 5.14403 23.7675 5.14403ZM26.588 9.03661C26.2586 9.03661 25.9637 8.96543 25.7034 8.82306C25.4471 8.6807 25.2458 8.48546 25.0993 8.23735C24.9529 7.98516 24.8797 7.70044 24.8797 7.38318C24.8797 7.06591 24.9529 6.78322 25.0993 6.53511C25.2458 6.28292 25.4471 6.08768 25.7034 5.94939C25.9637 5.80703 26.2586 5.73585 26.588 5.73585C26.8809 5.73585 27.1412 5.79483 27.369 5.91278C27.6008 6.03074 27.7798 6.20157 27.9059 6.42529L27.4605 6.71204C27.3588 6.55748 27.2327 6.44156 27.0822 6.36427C26.9317 6.28699 26.765 6.24835 26.5819 6.24835C26.3704 6.24835 26.1793 6.29513 26.0084 6.38868C25.8416 6.48223 25.7095 6.61646 25.6118 6.79136C25.5183 6.96219 25.4715 7.15947 25.4715 7.38318C25.4715 7.61096 25.5183 7.8123 25.6118 7.9872C25.7095 8.15803 25.8416 8.29022 26.0084 8.38378C26.1793 8.47733 26.3704 8.5241 26.5819 8.5241C26.765 8.5241 26.9317 8.48546 27.0822 8.40818C27.2327 8.3309 27.3588 8.21498 27.4605 8.06041L27.9059 8.34107C27.7798 8.56478 27.6008 8.73765 27.369 8.85967C27.1412 8.97763 26.8809 9.03661 26.588 9.03661ZM29.8417 5.73585C30.2892 5.73585 30.6308 5.84567 30.8668 6.06531C31.1067 6.28496 31.2267 6.61239 31.2267 7.04761V9H30.6715V8.57291C30.5739 8.72341 30.4336 8.83933 30.2505 8.92068C30.0716 8.99797 29.858 9.03661 29.6099 9.03661C29.2479 9.03661 28.9571 8.94916 28.7374 8.77425C28.5218 8.59935 28.4141 8.36954 28.4141 8.08482C28.4141 7.80009 28.5178 7.57231 28.7252 7.40148C28.9327 7.22658 29.2621 7.13913 29.7136 7.13913H30.641V7.0232C30.641 6.77102 30.5678 6.57782 30.4214 6.44359C30.2749 6.30936 30.0594 6.24225 29.7746 6.24225C29.5835 6.24225 29.3964 6.27479 29.2133 6.33987C29.0303 6.40088 28.8757 6.48426 28.7496 6.59002L28.5056 6.15073C28.6723 6.0165 28.8717 5.91482 29.1035 5.84567C29.3353 5.77245 29.5814 5.73585 29.8417 5.73585ZM29.7075 8.58512C29.9312 8.58512 30.1244 8.53631 30.2871 8.43869C30.4498 8.337 30.5678 8.19464 30.641 8.0116V7.56011H29.738C29.2418 7.56011 28.9937 7.72688 28.9937 8.06041C28.9937 8.22311 29.0567 8.35124 29.1828 8.44479C29.3089 8.53834 29.4838 8.58512 29.7075 8.58512ZM32.3106 4.4729H32.8964V9H32.3106V4.4729ZM37.4043 4.72915C37.9574 4.72915 38.3927 4.86134 38.7099 5.12573C39.0272 5.39011 39.1858 5.75415 39.1858 6.21784C39.1858 6.68154 39.0272 7.04558 38.7099 7.30996C38.3927 7.57435 37.9574 7.70654 37.4043 7.70654H36.3487V9H35.7386V4.72915H37.4043ZM37.3859 7.17574C37.7724 7.17574 38.0673 7.09439 38.2706 6.93169C38.474 6.76492 38.5757 6.52697 38.5757 6.21784C38.5757 5.90872 38.474 5.6728 38.2706 5.5101C38.0673 5.34334 37.7724 5.25995 37.3859 5.25995H36.3487V7.17574H37.3859ZM40.5044 6.30936C40.6061 6.12226 40.7566 5.9799 40.9559 5.88228C41.1552 5.78466 41.3972 5.73585 41.682 5.73585V6.30326C41.6494 6.29919 41.6047 6.29716 41.5477 6.29716C41.2305 6.29716 40.9803 6.39275 40.7973 6.58392C40.6183 6.77102 40.5288 7.03947 40.5288 7.38928V9H39.9431V5.76635H40.5044V6.30936ZM43.7591 9.03661C43.4377 9.03661 43.1489 8.96543 42.8927 8.82306C42.6364 8.6807 42.4351 8.48546 42.2887 8.23735C42.1463 7.98516 42.0751 7.70044 42.0751 7.38318C42.0751 7.06591 42.1463 6.78322 42.2887 6.53511C42.4351 6.28292 42.6364 6.08768 42.8927 5.94939C43.1489 5.80703 43.4377 5.73585 43.7591 5.73585C44.0804 5.73585 44.3671 5.80703 44.6193 5.94939C44.8756 6.08768 45.0749 6.28292 45.2172 6.53511C45.3637 6.78322 45.4369 7.06591 45.4369 7.38318C45.4369 7.70044 45.3637 7.98516 45.2172 8.23735C45.0749 8.48546 44.8756 8.6807 44.6193 8.82306C44.3671 8.96543 44.0804 9.03661 43.7591 9.03661ZM43.7591 8.5241C43.9665 8.5241 44.1516 8.47733 44.3143 8.38378C44.481 8.28616 44.6112 8.15193 44.7047 7.9811C44.7983 7.80619 44.8451 7.60689 44.8451 7.38318C44.8451 7.15947 44.7983 6.96219 44.7047 6.79136C44.6112 6.61646 44.481 6.48223 44.3143 6.38868C44.1516 6.29513 43.9665 6.24835 43.7591 6.24835C43.5516 6.24835 43.3645 6.29513 43.1977 6.38868C43.035 6.48223 42.9049 6.61646 42.8073 6.79136C42.7137 6.96219 42.6669 7.15947 42.6669 7.38318C42.6669 7.60689 42.7137 7.80619 42.8073 7.9811C42.9049 8.15193 43.035 8.28616 43.1977 8.38378C43.3645 8.47733 43.5516 8.5241 43.7591 8.5241ZM48.0651 8.81086C47.9797 8.88408 47.8739 8.94102 47.7478 8.9817C47.6217 9.0183 47.4916 9.03661 47.3573 9.03661C47.0319 9.03661 46.7798 8.94916 46.6008 8.77425C46.4218 8.59935 46.3323 8.3492 46.3323 8.0238V6.24835H45.7832V5.76635H46.3323V5.05861H46.9181V5.76635H47.8454V6.24835H46.9181V7.9994C46.9181 8.1743 46.9608 8.30853 47.0462 8.40208C47.1357 8.49563 47.2618 8.54241 47.4245 8.54241C47.6034 8.54241 47.756 8.49157 47.882 8.38988L48.0651 8.81086ZM50.0509 9.03661C49.7296 9.03661 49.4408 8.96543 49.1846 8.82306C48.9283 8.6807 48.727 8.48546 48.5805 8.23735C48.4382 7.98516 48.367 7.70044 48.367 7.38318C48.367 7.06591 48.4382 6.78322 48.5805 6.53511C48.727 6.28292 48.9283 6.08768 49.1846 5.94939C49.4408 5.80703 49.7296 5.73585 50.0509 5.73585C50.3723 5.73585 50.659 5.80703 50.9112 5.94939C51.1675 6.08768 51.3668 6.28292 51.5091 6.53511C51.6556 6.78322 51.7288 7.06591 51.7288 7.38318C51.7288 7.70044 51.6556 7.98516 51.5091 8.23735C51.3668 8.48546 51.1675 8.6807 50.9112 8.82306C50.659 8.96543 50.3723 9.03661 50.0509 9.03661ZM50.0509 8.5241C50.2584 8.5241 50.4434 8.47733 50.6061 8.38378C50.7729 8.28616 50.9031 8.15193 50.9966 7.9811C51.0902 7.80619 51.137 7.60689 51.137 7.38318C51.137 7.15947 51.0902 6.96219 50.9966 6.79136C50.9031 6.61646 50.7729 6.48223 50.6061 6.38868C50.4434 6.29513 50.2584 6.24835 50.0509 6.24835C49.8435 6.24835 49.6564 6.29513 49.4896 6.38868C49.3269 6.48223 49.1968 6.61646 49.0991 6.79136C49.0056 6.96219 48.9588 7.15947 48.9588 7.38318C48.9588 7.60689 49.0056 7.80619 49.0991 7.9811C49.1968 8.15193 49.3269 8.28616 49.4896 8.38378C49.6564 8.47733 49.8435 8.5241 50.0509 8.5241ZM54.357 8.81086C54.2716 8.88408 54.1658 8.94102 54.0397 8.9817C53.9136 9.0183 53.7835 9.03661 53.6492 9.03661C53.3238 9.03661 53.0716 8.94916 52.8927 8.77425C52.7137 8.59935 52.6242 8.3492 52.6242 8.0238V6.24835H52.0751V5.76635H52.6242V5.05861H53.2099V5.76635H54.1373V6.24835H53.2099V7.9994C53.2099 8.1743 53.2526 8.30853 53.3381 8.40208C53.4275 8.49563 53.5536 8.54241 53.7163 8.54241C53.8953 8.54241 54.0478 8.49157 54.1739 8.38988L54.357 8.81086ZM57.867 5.76635L56.299 9.32336C56.1607 9.65283 55.998 9.88468 55.8109 10.0189C55.6278 10.1531 55.4062 10.2202 55.1458 10.2202C54.9872 10.2202 54.8326 10.1938 54.6821 10.1409C54.5357 10.0921 54.4137 10.0189 54.3161 9.92128L54.5662 9.482C54.733 9.64063 54.9262 9.71994 55.1458 9.71994C55.2882 9.71994 55.4062 9.6813 55.4997 9.60402C55.5973 9.53081 55.6848 9.40268 55.7621 9.21964L55.8658 8.9939L54.4381 5.76635H55.0482L56.1769 8.35327L57.2935 5.76635H57.867ZM60.1281 5.73585C60.4413 5.73585 60.7219 5.80499 60.97 5.94329C61.2181 6.08158 61.4113 6.27479 61.5496 6.5229C61.692 6.77102 61.7632 7.05778 61.7632 7.38318C61.7632 7.70858 61.692 7.99737 61.5496 8.24955C61.4113 8.49767 61.2181 8.69087 60.97 8.82917C60.7219 8.96746 60.4413 9.03661 60.1281 9.03661C59.8962 9.03661 59.6827 8.99187 59.4874 8.90238C59.2963 8.8129 59.1336 8.68274 58.9993 8.5119V10.1836H58.4136V5.76635H58.9749V6.27886C59.1051 6.09989 59.2698 5.96566 59.4691 5.87618C59.6684 5.78262 59.8881 5.73585 60.1281 5.73585ZM60.0792 8.5241C60.2867 8.5241 60.4718 8.47733 60.6345 8.38378C60.8012 8.28616 60.9314 8.15193 61.0249 7.9811C61.1226 7.80619 61.1714 7.60689 61.1714 7.38318C61.1714 7.15947 61.1226 6.96219 61.0249 6.79136C60.9314 6.61646 60.8012 6.48223 60.6345 6.38868C60.4718 6.29513 60.2867 6.24835 60.0792 6.24835C59.8759 6.24835 59.6908 6.29716 59.524 6.39478C59.3613 6.48833 59.2312 6.62052 59.1336 6.79136C59.04 6.96219 58.9932 7.15947 58.9932 7.38318C58.9932 7.60689 59.04 7.80619 59.1336 7.9811C59.2271 8.15193 59.3573 8.28616 59.524 8.38378C59.6908 8.47733 59.8759 8.5241 60.0792 8.5241ZM62.5724 5.76635H63.1582V9H62.5724V5.76635ZM62.8653 5.14403C62.7514 5.14403 62.6558 5.10742 62.5786 5.03421C62.5053 4.96099 62.4687 4.87151 62.4687 4.76575C62.4687 4.66 62.5053 4.57051 62.5786 4.4973C62.6558 4.42002 62.7514 4.38138 62.8653 4.38138C62.9792 4.38138 63.0727 4.41798 63.146 4.4912C63.2232 4.56035 63.2619 4.6478 63.2619 4.75355C63.2619 4.86337 63.2232 4.95693 63.146 5.03421C63.0727 5.10742 62.9792 5.14403 62.8653 5.14403ZM66.0031 5.73585C66.414 5.73585 66.7394 5.85584 66.9793 6.09582C67.2234 6.33173 67.3454 6.6795 67.3454 7.13913V9H66.7597V7.20624C66.7597 6.89305 66.6844 6.65713 66.534 6.4985C66.3835 6.33987 66.1679 6.26055 65.8872 6.26055C65.57 6.26055 65.3198 6.3541 65.1368 6.54121C64.9537 6.72425 64.8622 6.98863 64.8622 7.33437V9H64.2765V5.76635H64.8378V6.25445C64.9558 6.08768 65.1144 5.95956 65.3137 5.87007C65.5171 5.78059 65.7469 5.73585 66.0031 5.73585ZM71.5406 5.76635V8.56071C71.5406 9.12609 71.4002 9.54301 71.1196 9.81146C70.8389 10.084 70.42 10.2202 69.8627 10.2202C69.5577 10.2202 69.2669 10.1775 68.9903 10.0921C68.7137 10.0108 68.49 9.89281 68.3191 9.73825L68.5998 9.28676C68.7503 9.41692 68.9354 9.5186 69.155 9.59182C69.3787 9.6691 69.6085 9.70774 69.8444 9.70774C70.2227 9.70774 70.5013 9.61826 70.6803 9.43929C70.8633 9.26032 70.9549 8.9878 70.9549 8.62172V8.36547C70.8166 8.53224 70.6457 8.65833 70.4424 8.74375C70.2431 8.8251 70.0254 8.86577 69.7895 8.86577C69.4804 8.86577 69.1997 8.80069 68.9476 8.67053C68.6994 8.53631 68.5042 8.35124 68.3618 8.11532C68.2195 7.87534 68.1483 7.60282 68.1483 7.29776C68.1483 6.9927 68.2195 6.72221 68.3618 6.4863C68.5042 6.24632 68.6994 6.06125 68.9476 5.93109C69.1997 5.80093 69.4804 5.73585 69.7895 5.73585C70.0336 5.73585 70.2593 5.78059 70.4668 5.87007C70.6783 5.95956 70.8511 6.09175 70.9854 6.26665V5.76635H71.5406ZM69.8566 8.35327C70.0681 8.35327 70.2573 8.30853 70.4241 8.21904C70.5949 8.12956 70.7271 8.0055 70.8206 7.84687C70.9183 7.68417 70.9671 7.50113 70.9671 7.29776C70.9671 6.98456 70.8633 6.73238 70.6559 6.54121C70.4485 6.34597 70.182 6.24835 69.8566 6.24835C69.5272 6.24835 69.2587 6.34597 69.0513 6.54121C68.8438 6.73238 68.7401 6.98456 68.7401 7.29776C68.7401 7.50113 68.7869 7.68417 68.8804 7.84687C68.9781 8.0055 69.1103 8.12956 69.277 8.21904C69.4479 8.30853 69.6411 8.35327 69.8566 8.35327Z" fill="#8A8A8A"/>
</svg>
