<svg width="60" height="14" viewBox="0 0 60 14" fill="none" xmlns="http://www.w3.org/2000/svg">
<rect width="59.859" height="13.2208" rx="6.61042" transform="matrix(0.999978 0.00663231 -0.00643565 0.999979 0.0852051 0)" fill="white" fill-opacity="0.25"/>
<path d="M10.7311 4.44082C11.2843 4.44449 11.7186 4.57956 12.0342 4.84605C12.3498 5.11253 12.506 5.47762 12.5031 5.9413C12.5001 6.40498 12.3391 6.76796 12.0201 7.03024C11.7012 7.29252 11.2651 7.42182 10.712 7.41815L9.65647 7.41115L9.64814 8.70458L9.03804 8.70054L9.06552 4.42977L10.7311 4.44082ZM10.6971 6.88723C11.0835 6.8898 11.3789 6.81041 11.5833 6.64906C11.7877 6.48364 11.891 6.24638 11.8929 5.93725C11.8949 5.62813 11.7948 5.39155 11.5924 5.2275C11.3901 5.05939 11.0958 4.97405 10.7094 4.97149L9.67221 4.96461L9.65988 6.88036L10.6971 6.88723ZM13.8211 6.04156C13.924 5.85514 14.0754 5.71378 14.2753 5.61748C14.4752 5.52118 14.7175 5.47398 15.0023 5.47587L14.9986 6.04327C14.9661 6.03899 14.9214 6.03666 14.8644 6.03628C14.5472 6.03418 14.2964 6.1281 14.1121 6.31805C13.932 6.50397 13.8408 6.77182 13.8385 7.12162L13.8281 8.73231L13.2424 8.72842L13.2633 5.49484L13.8246 5.49856L13.8211 6.04156ZM17.0581 8.79034C16.7367 8.78821 16.4484 8.71511 16.1931 8.57105C15.9377 8.42699 15.7377 8.23042 15.5928 7.98134C15.4521 7.72822 15.3828 7.44303 15.3848 7.12577C15.3868 6.80851 15.4598 6.5263 15.6038 6.27914C15.7518 6.02793 15.9544 5.83403 16.2116 5.69744C16.4687 5.55678 16.758 5.48751 17.0793 5.48964C17.4006 5.49178 17.6869 5.56486 17.9382 5.70889C18.1935 5.84888 18.3916 6.04544 18.5323 6.29856C18.6771 6.54764 18.7485 6.83081 18.7465 7.14807C18.7445 7.46532 18.6694 7.74956 18.5214 8.00076C18.3774 8.24793 18.1768 8.44184 17.9197 8.5825C17.6666 8.72319 17.3794 8.79247 17.0581 8.79034ZM17.0614 8.27784C17.2688 8.27922 17.4542 8.23367 17.6175 8.1412C17.7848 8.04469 17.9159 7.91133 18.0105 7.74112C18.1052 7.56684 18.1533 7.36785 18.1547 7.14414C18.1561 6.92044 18.1106 6.72286 18.0182 6.55141C17.9258 6.37589 17.7965 6.2408 17.6303 6.14614C17.4682 6.05152 17.2834 6.00351 17.076 6.00214C16.8686 6.00076 16.6812 6.0463 16.5138 6.13874C16.3505 6.23121 16.2195 6.36457 16.1207 6.53882C16.0261 6.70903 15.978 6.90599 15.9766 7.1297C15.9752 7.3534 16.0207 7.55302 16.1131 7.72853C16.2096 7.90001 16.3389 8.0351 16.501 8.1338C16.6671 8.22845 16.8539 8.27647 17.0614 8.27784ZM22.6602 5.55717L22.6422 8.35147C22.6385 8.91684 22.4955 9.33281 22.2132 9.5994C21.9308 9.87005 21.5109 10.0035 20.9537 9.99984C20.6487 9.99781 20.3581 9.95318 20.0821 9.86593C19.806 9.78274 19.5831 9.66331 19.4132 9.50761L19.6968 9.05799C19.8464 9.18915 20.0309 9.29206 20.25 9.36673C20.4732 9.44549 20.7028 9.48566 20.9387 9.48722C21.317 9.48973 21.5962 9.4021 21.7763 9.22432C21.9605 9.04657 22.0537 8.77466 22.0561 8.40859L22.0577 8.15235C21.9184 8.31819 21.7467 8.44315 21.5428 8.52722C21.343 8.60724 21.1251 8.64647 20.8892 8.64491C20.5801 8.64286 20.2999 8.57592 20.0485 8.44409C19.8013 8.30822 19.6072 8.12186 19.4664 7.88501C19.3256 7.64408 19.2561 7.3711 19.2581 7.06604C19.2601 6.76099 19.333 6.49098 19.4769 6.25601C19.6208 6.01698 19.8172 5.83321 20.0661 5.7047C20.3192 5.57621 20.6002 5.513 20.9094 5.51505C21.1534 5.51667 21.3788 5.5629 21.5857 5.65376C21.7966 5.74465 21.9686 5.87799 22.1017 6.05377L22.105 5.55348L22.6602 5.55717ZM20.9596 8.13286C21.1711 8.13426 21.3605 8.09078 21.5279 8.0024C21.6993 7.91405 21.8323 7.79087 21.9268 7.63286C22.0255 7.47082 22.0755 7.28811 22.0768 7.08474C22.0788 6.77155 21.9767 6.51868 21.7705 6.32614C21.5643 6.12953 21.2986 6.03014 20.9732 6.02798C20.6437 6.0258 20.3746 6.12164 20.1659 6.3155C19.9573 6.50529 19.8519 6.75678 19.8499 7.06997C19.8486 7.27334 19.8942 7.45668 19.9867 7.62C20.0833 7.77927 20.2147 7.9042 20.3809 7.99479C20.5511 8.08541 20.744 8.13143 20.9596 8.13286ZM24.3371 6.11131C24.44 5.92488 24.5914 5.78352 24.7913 5.68723C24.9913 5.59093 25.2336 5.54373 25.5183 5.54562L25.5146 6.11302C25.4821 6.10873 25.4374 6.1064 25.3805 6.10603C25.0632 6.10392 24.8124 6.19785 24.6282 6.3878C24.448 6.57371 24.3568 6.84157 24.3545 7.19136L24.3442 8.80205L23.7585 8.79817L23.7793 5.56459L24.3406 5.56831L24.3371 6.11131ZM27.4117 5.55817C27.8591 5.56114 28.2001 5.67323 28.4346 5.89443C28.6732 6.11566 28.791 6.44388 28.7882 6.87909L28.7757 8.83144L28.2205 8.82776L28.2232 8.40069C28.1246 8.55053 27.9836 8.66552 27.8 8.74566C27.6205 8.82175 27.4068 8.85897 27.1586 8.85733C26.7966 8.85493 26.5064 8.76555 26.2879 8.58919C26.0734 8.41287 25.9671 8.18234 25.969 7.89763C25.9708 7.61291 26.076 7.38582 26.2845 7.21637C26.4931 7.04285 26.8231 6.95758 27.2746 6.96058L28.2019 6.96673L28.2027 6.85081C28.2043 6.59863 28.1323 6.40494 27.9868 6.26975C27.8412 6.13455 27.6261 6.06601 27.3414 6.06412C27.1502 6.06285 26.9629 6.09415 26.7794 6.15801C26.596 6.21781 26.4409 6.30017 26.3141 6.40508L26.0729 5.96419C26.2405 5.83107 26.4405 5.73071 26.6728 5.6631C26.9051 5.59142 27.1514 5.55645 27.4117 5.55817ZM27.2592 8.40649C27.4829 8.40798 27.6764 8.36045 27.8397 8.26391C28.0031 8.16331 28.1219 8.02173 28.1963 7.83918L28.1992 7.3877L27.2963 7.38171C26.8 7.37842 26.5509 7.54354 26.5487 7.87707C26.5477 8.03976 26.6099 8.1683 26.7354 8.26269C26.8609 8.35708 27.0355 8.40501 27.2592 8.40649ZM33.9256 5.60138C34.3323 5.60407 34.6529 5.72416 34.8873 5.96163C35.1257 6.19913 35.2435 6.54973 35.2405 7.01341L35.2285 8.87424L34.6428 8.87036L34.6544 7.07664C34.6564 6.76345 34.5847 6.52705 34.4393 6.36745C34.2979 6.20788 34.093 6.1272 33.8246 6.12542C33.5277 6.12345 33.2912 6.21544 33.1151 6.40138C32.939 6.58325 32.8498 6.84705 32.8476 7.19278L32.8369 8.85838L32.2512 8.8545L32.2627 7.06077C32.2647 6.74759 32.1931 6.51119 32.0476 6.35159C31.9063 6.19202 31.7014 6.11134 31.433 6.10956C31.136 6.10759 30.8995 6.19958 30.7234 6.38552C30.5474 6.56739 30.4582 6.83119 30.456 7.17692L30.4453 8.84252L29.8596 8.83863L29.8804 5.60505L30.4417 5.60878L30.4386 6.09076C30.5576 5.92478 30.713 5.79972 30.9047 5.71557C31.0964 5.62736 31.3143 5.58406 31.5584 5.58568C31.8105 5.58735 32.0339 5.63968 32.2285 5.74266C32.4231 5.84563 32.5726 5.99509 32.6771 6.19103C32.8003 6.00474 32.9701 5.85943 33.1863 5.75511C33.4067 5.65081 33.6531 5.59957 33.9256 5.60138ZM40.3722 5.64413C40.779 5.64683 41.0995 5.76692 41.3339 6.00439C41.5724 6.24189 41.6901 6.59248 41.6871 7.05617L41.6752 8.917L41.0895 8.91312L41.101 7.11939C41.103 6.8062 41.0313 6.56981 40.8859 6.41021C40.7446 6.25064 40.5397 6.16996 40.2712 6.16818C39.9743 6.16621 39.7378 6.2582 39.5617 6.44414C39.3856 6.62601 39.2965 6.88981 39.2943 7.23554L39.2835 8.90114L38.6978 8.89725L38.7094 7.10353C38.7114 6.79034 38.6397 6.55395 38.4943 6.39435C38.353 6.23478 38.1481 6.1541 37.8796 6.15232C37.5827 6.15035 37.3462 6.24233 37.1701 6.42827C36.994 6.61015 36.9049 6.87395 36.9026 7.21968L36.8919 8.88528L36.3062 8.88139L36.327 5.64781L36.8883 5.65153L36.8852 6.13352C37.0043 5.96754 37.1596 5.84248 37.3513 5.75833C37.5431 5.67011 37.761 5.62682 38.005 5.62843C38.2572 5.63011 38.4806 5.68243 38.6752 5.78541C38.8697 5.88839 39.0193 6.03785 39.1238 6.23379C39.247 6.0475 39.4167 5.90219 39.633 5.79787C39.8533 5.69357 40.0997 5.64233 40.3722 5.64413ZM42.7737 5.69057L43.3594 5.69445L43.3386 8.92803L42.7529 8.92415L42.7737 5.69057ZM43.0705 5.0702C42.9566 5.06944 42.8613 5.0322 42.7845 4.95848C42.7117 4.88478 42.6757 4.79505 42.6764 4.6893C42.6771 4.58355 42.7143 4.49431 42.7879 4.42158C42.8657 4.34481 42.9616 4.30681 43.0754 4.30756C43.1893 4.30832 43.2826 4.34555 43.3554 4.41924C43.4322 4.4889 43.4703 4.57661 43.4696 4.68236C43.4689 4.79218 43.4297 4.88547 43.3519 4.96224C43.2782 5.03497 43.1844 5.07095 43.0705 5.0702ZM46.2045 5.68282C46.6153 5.68554 46.9399 5.80769 47.1784 6.04926C47.4209 6.28678 47.5407 6.63535 47.5377 7.09497L47.5257 8.9558L46.94 8.95192L46.9516 7.1582C46.9536 6.84501 46.8799 6.6086 46.7304 6.44897C46.5809 6.28935 46.3658 6.2086 46.0852 6.20674C45.7679 6.20464 45.5172 6.29653 45.333 6.48241C45.1487 6.66423 45.0555 6.92801 45.0533 7.27374L45.0426 8.93933L44.4569 8.93545L44.4777 5.70187L45.039 5.70559L45.0359 6.19368C45.1549 6.0277 45.3143 5.90063 45.5142 5.81247C45.7182 5.72433 45.9483 5.68112 46.2045 5.68282ZM51.7416 5.75005L51.7236 8.54435C51.72 9.10972 51.577 9.52569 51.2946 9.79228C51.0122 10.0629 50.5924 10.1964 50.0351 10.1927C49.7301 10.1907 49.4395 10.1461 49.1635 10.0588C48.8875 9.97563 48.6645 9.85619 48.4947 9.70049L48.7782 9.25087C48.9279 9.38203 49.1123 9.48494 49.3315 9.55961C49.5547 9.63838 49.7842 9.67854 50.0201 9.6801C50.3984 9.68261 50.6776 9.59498 50.8577 9.4172C51.0419 9.23945 51.1352 8.96754 51.1375 8.60147L51.1392 8.34523C50.9998 8.51107 50.8282 8.63603 50.6243 8.7201C50.4244 8.80012 50.2066 8.83935 49.9707 8.83779C49.6615 8.83574 49.3813 8.7688 49.13 8.63697C48.8827 8.5011 48.6887 8.31474 48.5478 8.07789C48.407 7.83697 48.3376 7.56398 48.3395 7.25892C48.3415 6.95387 48.4144 6.68386 48.5583 6.44889C48.7022 6.20986 48.8986 6.02609 49.1476 5.89758C49.4006 5.7691 49.6817 5.70588 49.9908 5.70793C50.2348 5.70955 50.4603 5.75579 50.6672 5.84664C50.8781 5.93753 51.0501 6.07087 51.1832 6.24666L51.1864 5.74637L51.7416 5.75005ZM50.0411 8.32574C50.2526 8.32715 50.442 8.28366 50.6093 8.19528C50.7807 8.10693 50.9137 7.98375 51.0083 7.82575C51.107 7.6637 51.1569 7.48099 51.1583 7.27762C51.1603 6.96443 51.0582 6.71156 50.852 6.51902C50.6458 6.32241 50.38 6.22302 50.0546 6.22087C49.7251 6.21868 49.4561 6.31452 49.2474 6.50838C49.0387 6.69817 48.9334 6.94966 48.9314 7.26285C48.93 7.46622 48.9756 7.64956 49.0681 7.81288C49.1647 7.97215 49.2961 8.09709 49.4623 8.18767C49.6326 8.27829 49.8255 8.32431 50.0411 8.32574Z" fill="white"/>
</svg>
