<svg width="37" height="14" viewBox="0 0 37 14" fill="none" xmlns="http://www.w3.org/2000/svg">
<rect x="0.767822" width="35.7455" height="13.2208" rx="6.61042" transform="rotate(0.37433 0.767822 0)" fill="#9D9D9D" fill-opacity="0.25"/>
<path d="M11.616 8.76096C11.0466 8.75724 10.6043 8.59165 10.2892 8.26418C9.97404 7.93672 9.81847 7.46793 9.82245 6.85782L9.83832 4.42959L10.4484 4.43357L10.4327 6.8374C10.4267 7.75257 10.8244 8.21277 11.6257 8.218C12.0161 8.22055 12.3158 8.11065 12.5247 7.8883C12.7336 7.66188 12.8396 7.31683 12.8427 6.85315L12.8584 4.44932L13.4502 4.45319L13.4343 6.88142C13.4303 7.4956 13.2686 7.96434 12.9492 8.28766C12.6298 8.60691 12.1855 8.76468 11.616 8.76096ZM14.701 4.46136L15.3111 4.46534L15.2832 8.73611L14.6731 8.73212L14.701 4.46136ZM17.7973 3.6152L18.3281 3.61866L16.2772 9.35274L15.7464 9.34927L17.7973 3.6152ZM20.4757 8.81884C19.9063 8.81512 19.464 8.64953 19.1489 8.32207C18.8337 7.9946 18.6782 7.52582 18.6821 6.91571L18.698 4.48747L19.3081 4.49146L19.2924 6.89529C19.2864 7.81045 19.6841 8.27065 20.4854 8.27589C20.8758 8.27844 21.1755 8.16854 21.3844 7.94619C21.5933 7.71977 21.6993 7.37472 21.7023 6.91103L21.718 4.5072L22.3098 4.51107L22.294 6.9393C22.29 7.55348 22.1283 8.02223 21.8089 8.34555C21.4895 8.6648 21.0451 8.82256 20.4757 8.81884ZM26.1577 8.80715L24.888 7.03557L23.6135 8.79053L22.9119 8.78595L24.5308 6.60614L23.0374 4.51582L23.7329 4.52037L24.918 6.16937L26.1124 4.53591L26.7774 4.54026L25.2569 6.59258L26.8593 8.81174L26.1577 8.80715Z" fill="#8A8A8A"/>
</svg>
