<svg width="73" height="13" viewBox="0 0 73 13" fill="none" xmlns="http://www.w3.org/2000/svg">
<rect width="73" height="13" rx="6.5" fill="#9D9D9D" fill-opacity="0.25"/>
<path d="M10.3063 4.72915C10.8594 4.72915 11.2947 4.86134 11.6119 5.12573C11.9292 5.39011 12.0878 5.75415 12.0878 6.21784C12.0878 6.68154 11.9292 7.04558 11.6119 7.30996C11.2947 7.57435 10.8594 7.70654 10.3063 7.70654H9.25075V9H8.64063V4.72915H10.3063ZM10.288 7.17574C10.6744 7.17574 10.9693 7.09439 11.1726 6.93169C11.376 6.76492 11.4777 6.52697 11.4777 6.21784C11.4777 5.90872 11.376 5.6728 11.1726 5.5101C10.9693 5.34334 10.6744 5.25995 10.288 5.25995H9.25075V7.17574H10.288ZM13.4064 6.30936C13.5081 6.12226 13.6586 5.9799 13.8579 5.88228C14.0572 5.78466 14.2993 5.73585 14.584 5.73585V6.30326C14.5514 6.29919 14.5067 6.29716 14.4498 6.29716C14.1325 6.29716 13.8823 6.39275 13.6993 6.58392C13.5203 6.77102 13.4308 7.03947 13.4308 7.38928V9H12.8451V5.76635H13.4064V6.30936ZM16.6611 9.03661C16.3397 9.03661 16.0509 8.96543 15.7947 8.82306C15.5384 8.6807 15.3371 8.48546 15.1907 8.23735C15.0483 7.98516 14.9771 7.70044 14.9771 7.38318C14.9771 7.06591 15.0483 6.78322 15.1907 6.53511C15.3371 6.28292 15.5384 6.08768 15.7947 5.94939C16.0509 5.80703 16.3397 5.73585 16.6611 5.73585C16.9824 5.73585 17.2692 5.80703 17.5213 5.94939C17.7776 6.08768 17.9769 6.28292 18.1193 6.53511C18.2657 6.78322 18.3389 7.06591 18.3389 7.38318C18.3389 7.70044 18.2657 7.98516 18.1193 8.23735C17.9769 8.48546 17.7776 8.6807 17.5213 8.82306C17.2692 8.96543 16.9824 9.03661 16.6611 9.03661ZM16.6611 8.5241C16.8685 8.5241 17.0536 8.47733 17.2163 8.38378C17.383 8.28616 17.5132 8.15193 17.6068 7.9811C17.7003 7.80619 17.7471 7.60689 17.7471 7.38318C17.7471 7.15947 17.7003 6.96219 17.6068 6.79136C17.5132 6.61646 17.383 6.48223 17.2163 6.38868C17.0536 6.29513 16.8685 6.24835 16.6611 6.24835C16.4536 6.24835 16.2665 6.29513 16.0997 6.38868C15.9371 6.48223 15.8069 6.61646 15.7093 6.79136C15.6157 6.96219 15.5689 7.15947 15.5689 7.38318C15.5689 7.60689 15.6157 7.80619 15.7093 7.9811C15.8069 8.15193 15.9371 8.28616 16.0997 8.38378C16.2665 8.47733 16.4536 8.5241 16.6611 8.5241ZM18.734 10.2202C18.5917 10.2202 18.4595 10.204 18.3375 10.1714C18.2154 10.1389 18.1138 10.0901 18.0324 10.025L18.2215 9.57351C18.3436 9.6752 18.5022 9.72605 18.6974 9.72605C18.852 9.72605 18.97 9.67724 19.0513 9.57962C19.1367 9.48606 19.1794 9.34574 19.1794 9.15863V5.76635H19.7652V9.14643C19.7652 9.47996 19.6757 9.74232 19.4967 9.93349C19.3177 10.1247 19.0635 10.2202 18.734 10.2202ZM19.4723 5.14403C19.3584 5.14403 19.2628 5.10742 19.1855 5.03421C19.1123 4.96099 19.0757 4.87151 19.0757 4.76575C19.0757 4.66 19.1123 4.57051 19.1855 4.4973C19.2628 4.42002 19.3584 4.38138 19.4723 4.38138C19.5862 4.38138 19.6797 4.41798 19.753 4.4912C19.8302 4.56035 19.8689 4.6478 19.8689 4.75355C19.8689 4.86337 19.8302 4.95693 19.753 5.03421C19.6797 5.10742 19.5862 5.14403 19.4723 5.14403ZM23.8053 7.40148C23.8053 7.44622 23.8012 7.5052 23.7931 7.57842H21.1695C21.2061 7.86314 21.3302 8.09295 21.5417 8.26785C21.7573 8.43869 22.0237 8.5241 22.341 8.5241C22.7274 8.5241 23.0385 8.39395 23.2745 8.13363L23.5978 8.5119C23.4514 8.68274 23.2683 8.8129 23.0487 8.90238C22.8331 8.99187 22.5911 9.03661 22.3227 9.03661C21.981 9.03661 21.678 8.96746 21.4136 8.82917C21.1492 8.6868 20.9438 8.48953 20.7974 8.23735C20.655 7.98516 20.5838 7.70044 20.5838 7.38318C20.5838 7.06998 20.653 6.78729 20.7913 6.53511C20.9336 6.28292 21.1268 6.08768 21.3709 5.94939C21.619 5.80703 21.8976 5.73585 22.2067 5.73585C22.5159 5.73585 22.7904 5.80703 23.0304 5.94939C23.2745 6.08768 23.4636 6.28292 23.5978 6.53511C23.7361 6.78729 23.8053 7.07608 23.8053 7.40148ZM22.2067 6.23005C21.9261 6.23005 21.6902 6.31546 21.499 6.4863C21.3119 6.65713 21.2021 6.88084 21.1695 7.15743H23.2439C23.2114 6.88491 23.0995 6.66323 22.9084 6.4924C22.7213 6.3175 22.4874 6.23005 22.2067 6.23005ZM26.028 9.03661C25.6985 9.03661 25.4036 8.96543 25.1433 8.82306C24.887 8.6807 24.6857 8.48546 24.5393 8.23735C24.3928 7.98516 24.3196 7.70044 24.3196 7.38318C24.3196 7.06591 24.3928 6.78322 24.5393 6.53511C24.6857 6.28292 24.887 6.08768 25.1433 5.94939C25.4036 5.80703 25.6985 5.73585 26.028 5.73585C26.3208 5.73585 26.5811 5.79483 26.8089 5.91278C27.0408 6.03074 27.2197 6.20157 27.3458 6.42529L26.9004 6.71204C26.7987 6.55748 26.6727 6.44156 26.5222 6.36427C26.3717 6.28699 26.2049 6.24835 26.0219 6.24835C25.8103 6.24835 25.6192 6.29513 25.4483 6.38868C25.2816 6.48223 25.1494 6.61646 25.0518 6.79136C24.9582 6.96219 24.9114 7.15947 24.9114 7.38318C24.9114 7.61096 24.9582 7.8123 25.0518 7.9872C25.1494 8.15803 25.2816 8.29022 25.4483 8.38378C25.6192 8.47733 25.8103 8.5241 26.0219 8.5241C26.2049 8.5241 26.3717 8.48546 26.5222 8.40818C26.6727 8.3309 26.7987 8.21498 26.9004 8.06041L27.3458 8.34107C27.2197 8.56478 27.0408 8.73765 26.8089 8.85967C26.5811 8.97763 26.3208 9.03661 26.028 9.03661ZM29.964 8.81086C29.8786 8.88408 29.7728 8.94102 29.6467 8.9817C29.5207 9.0183 29.3905 9.03661 29.2563 9.03661C28.9309 9.03661 28.6787 8.94916 28.4997 8.77425C28.3207 8.59935 28.2313 8.3492 28.2313 8.0238V6.24835H27.6822V5.76635H28.2313V5.05861H28.817V5.76635H29.7444V6.24835H28.817V7.9994C28.817 8.1743 28.8597 8.30853 28.9451 8.40208C29.0346 8.49563 29.1607 8.54241 29.3234 8.54241C29.5023 8.54241 29.6549 8.49157 29.781 8.38988L29.964 8.81086ZM36.3557 9L36.3496 5.88838L34.806 8.4814H34.5254L32.9818 5.90668V9H32.3961V4.72915H32.8964L34.6779 7.73095L36.4351 4.72915H36.9354L36.9415 9H36.3557ZM41.0603 7.40148C41.0603 7.44622 41.0562 7.5052 41.0481 7.57842H38.4245C38.4611 7.86314 38.5852 8.09295 38.7967 8.26785C39.0123 8.43869 39.2787 8.5241 39.596 8.5241C39.9824 8.5241 40.2935 8.39395 40.5295 8.13363L40.8528 8.5119C40.7064 8.68274 40.5234 8.8129 40.3037 8.90238C40.0881 8.99187 39.8461 9.03661 39.5777 9.03661C39.236 9.03661 38.933 8.96746 38.6686 8.82917C38.4042 8.6868 38.1988 8.48953 38.0524 8.23735C37.91 7.98516 37.8388 7.70044 37.8388 7.38318C37.8388 7.06998 37.908 6.78729 38.0463 6.53511C38.1886 6.28292 38.3818 6.08768 38.6259 5.94939C38.874 5.80703 39.1526 5.73585 39.4617 5.73585C39.7709 5.73585 40.0454 5.80703 40.2854 5.94939C40.5295 6.08768 40.7186 6.28292 40.8528 6.53511C40.9911 6.78729 41.0603 7.07608 41.0603 7.40148ZM39.4617 6.23005C39.1811 6.23005 38.9452 6.31546 38.754 6.4863C38.5669 6.65713 38.4571 6.88084 38.4245 7.15743H40.499C40.4664 6.88491 40.3546 6.66323 40.1634 6.4924C39.9763 6.3175 39.7424 6.23005 39.4617 6.23005ZM43.6002 5.73585C44.011 5.73585 44.3364 5.85584 44.5764 6.09582C44.8205 6.33173 44.9425 6.6795 44.9425 7.13913V9H44.3568V7.20624C44.3568 6.89305 44.2815 6.65713 44.131 6.4985C43.9805 6.33987 43.765 6.26055 43.4843 6.26055C43.167 6.26055 42.9169 6.3541 42.7339 6.54121C42.5508 6.72425 42.4593 6.98863 42.4593 7.33437V9H41.8736V5.76635H42.4349V6.25445C42.5529 6.08768 42.7115 5.95956 42.9108 5.87007C43.1142 5.78059 43.344 5.73585 43.6002 5.73585ZM47.8446 8.81086C47.7592 8.88408 47.6535 8.94102 47.5274 8.9817C47.4013 9.0183 47.2711 9.03661 47.1369 9.03661C46.8115 9.03661 46.5593 8.94916 46.3803 8.77425C46.2014 8.59935 46.1119 8.3492 46.1119 8.0238V6.24835H45.5628V5.76635H46.1119V5.05861H46.6976V5.76635H47.625V6.24835H46.6976V7.9994C46.6976 8.1743 46.7403 8.30853 46.8257 8.40208C46.9152 8.49563 47.0413 8.54241 47.204 8.54241C47.383 8.54241 47.5355 8.49157 47.6616 8.38988L47.8446 8.81086ZM49.8305 9.03661C49.5092 9.03661 49.2204 8.96543 48.9641 8.82306C48.7079 8.6807 48.5065 8.48546 48.3601 8.23735C48.2177 7.98516 48.1465 7.70044 48.1465 7.38318C48.1465 7.06591 48.2177 6.78322 48.3601 6.53511C48.5065 6.28292 48.7079 6.08768 48.9641 5.94939C49.2204 5.80703 49.5092 5.73585 49.8305 5.73585C50.1518 5.73585 50.4386 5.80703 50.6908 5.94939C50.947 6.08768 51.1463 6.28292 51.2887 6.53511C51.4351 6.78322 51.5083 7.06591 51.5083 7.38318C51.5083 7.70044 51.4351 7.98516 51.2887 8.23735C51.1463 8.48546 50.947 8.6807 50.6908 8.82306C50.4386 8.96543 50.1518 9.03661 49.8305 9.03661ZM49.8305 8.5241C50.0379 8.5241 50.223 8.47733 50.3857 8.38378C50.5525 8.28616 50.6826 8.15193 50.7762 7.9811C50.8697 7.80619 50.9165 7.60689 50.9165 7.38318C50.9165 7.15947 50.8697 6.96219 50.7762 6.79136C50.6826 6.61646 50.5525 6.48223 50.3857 6.38868C50.223 6.29513 50.0379 6.24835 49.8305 6.24835C49.623 6.24835 49.4359 6.29513 49.2692 6.38868C49.1065 6.48223 48.9763 6.61646 48.8787 6.79136C48.7851 6.96219 48.7384 7.15947 48.7384 7.38318C48.7384 7.60689 48.7851 7.80619 48.8787 7.9811C48.9763 8.15193 49.1065 8.28616 49.2692 8.38378C49.4359 8.47733 49.623 8.5241 49.8305 8.5241ZM52.8797 6.30936C52.9813 6.12226 53.1318 5.9799 53.3312 5.88228C53.5305 5.78466 53.7725 5.73585 54.0572 5.73585V6.30326C54.0247 6.29919 53.9799 6.29716 53.923 6.29716C53.6057 6.29716 53.3556 6.39275 53.1725 6.58392C52.9936 6.77102 52.9041 7.03947 52.9041 7.38928V9H52.3183V5.76635H52.8797V6.30936ZM54.7791 5.76635H55.3648V9H54.7791V5.76635ZM55.072 5.14403C54.9581 5.14403 54.8625 5.10742 54.7852 5.03421C54.712 4.96099 54.6754 4.87151 54.6754 4.76575C54.6754 4.66 54.712 4.57051 54.7852 4.4973C54.8625 4.42002 54.9581 4.38138 55.072 4.38138C55.1858 4.38138 55.2794 4.41798 55.3526 4.4912C55.4299 4.56035 55.4685 4.6478 55.4685 4.75355C55.4685 4.86337 55.4299 4.95693 55.3526 5.03421C55.2794 5.10742 55.1858 5.14403 55.072 5.14403ZM58.2098 5.73585C58.6206 5.73585 58.946 5.85584 59.186 6.09582C59.43 6.33173 59.5521 6.6795 59.5521 7.13913V9H58.9663V7.20624C58.9663 6.89305 58.8911 6.65713 58.7406 6.4985C58.5901 6.33987 58.3745 6.26055 58.0939 6.26055C57.7766 6.26055 57.5265 6.3541 57.3434 6.54121C57.1604 6.72425 57.0689 6.98863 57.0689 7.33437V9H56.4831V5.76635H57.0445V6.25445C57.1624 6.08768 57.321 5.95956 57.5204 5.87007C57.7237 5.78059 57.9535 5.73585 58.2098 5.73585ZM63.7472 5.76635V8.56071C63.7472 9.12609 63.6069 9.54301 63.3262 9.81146C63.0456 10.084 62.6266 10.2202 62.0694 10.2202C61.7643 10.2202 61.4735 10.1775 61.1969 10.0921C60.9203 10.0108 60.6966 9.89281 60.5258 9.73825L60.8064 9.28676C60.9569 9.41692 61.142 9.5186 61.3616 9.59182C61.5854 9.6691 61.8152 9.70774 62.0511 9.70774C62.4294 9.70774 62.708 9.61826 62.887 9.43929C63.07 9.26032 63.1615 8.9878 63.1615 8.62172V8.36547C63.0232 8.53224 62.8524 8.65833 62.649 8.74375C62.4497 8.8251 62.2321 8.86577 61.9962 8.86577C61.687 8.86577 61.4064 8.80069 61.1542 8.67053C60.9061 8.53631 60.7108 8.35124 60.5685 8.11532C60.4261 7.87534 60.3549 7.60282 60.3549 7.29776C60.3549 6.9927 60.4261 6.72221 60.5685 6.4863C60.7108 6.24632 60.9061 6.06125 61.1542 5.93109C61.4064 5.80093 61.687 5.73585 61.9962 5.73585C62.2402 5.73585 62.466 5.78059 62.6734 5.87007C62.8849 5.95956 63.0578 6.09175 63.192 6.26665V5.76635H63.7472ZM62.0633 8.35327C62.2748 8.35327 62.4639 8.30853 62.6307 8.21904C62.8015 8.12956 62.9337 8.0055 63.0273 7.84687C63.1249 7.68417 63.1737 7.50113 63.1737 7.29776C63.1737 6.98456 63.07 6.73238 62.8625 6.54121C62.6551 6.34597 62.3887 6.24835 62.0633 6.24835C61.7338 6.24835 61.4654 6.34597 61.2579 6.54121C61.0505 6.73238 60.9468 6.98456 60.9468 7.29776C60.9468 7.50113 60.9935 7.68417 61.0871 7.84687C61.1847 8.0055 61.3169 8.12956 61.4837 8.21904C61.6545 8.30853 61.8477 8.35327 62.0633 8.35327Z" fill="#8A8A8A"/>
</svg>
