<svg width="67" height="14" viewBox="0 0 67 14" fill="none" xmlns="http://www.w3.org/2000/svg">
<rect x="0.0864258" width="66.852" height="13.2208" rx="6.61042" transform="rotate(0.37433 0.0864258 0)" fill="#9D9D9D" fill-opacity="0.25"/>
<path d="M10.8592 4.44059C11.4124 4.4442 11.8468 4.57924 12.1623 4.84569C12.4778 5.11214 12.6341 5.47721 12.631 5.94089C12.628 6.40458 12.467 6.76757 12.148 7.02988C11.829 7.29219 11.393 7.42153 10.8398 7.41792L9.78431 7.41102L9.77585 8.70445L9.16575 8.70047L9.19365 4.42971L10.8592 4.44059ZM10.825 6.88701C11.2114 6.88953 11.5068 6.81011 11.7112 6.64874C11.9157 6.48331 12.0189 6.24603 12.0209 5.93691C12.0229 5.62779 11.9228 5.39121 11.7205 5.22719C11.5182 5.0591 11.2239 4.97379 10.8375 4.97126L9.80029 4.96449L9.78777 6.88023L10.825 6.88701ZM13.949 6.04102C14.0519 5.85459 14.2034 5.71321 14.4033 5.6169C14.6032 5.52058 14.8456 5.47335 15.1303 5.47522L15.1266 6.04262C15.0941 6.03834 15.0493 6.03601 14.9924 6.03564C14.6751 6.03357 14.4244 6.12751 14.2401 6.31749C14.0599 6.50342 13.9687 6.77128 13.9664 7.12108L13.9559 8.73176L13.3702 8.72794L13.3913 5.49436L13.9526 5.49803L13.949 6.04102ZM17.1858 8.78947C16.8644 8.78738 16.5761 8.71431 16.3208 8.57028C16.0655 8.42624 15.8654 8.22969 15.7206 7.98063C15.5799 7.72752 15.5106 7.44233 15.5127 7.12508C15.5147 6.80782 15.5878 6.5256 15.7318 6.27842C15.8798 6.0272 16.0824 5.83328 16.3396 5.69666C16.5968 5.55598 16.886 5.48669 17.2073 5.48879C17.5287 5.49088 17.8149 5.56394 18.0662 5.70794C18.3215 5.84791 18.5196 6.04445 18.6603 6.29755C18.8051 6.54662 18.8764 6.82978 18.8744 7.14704C18.8723 7.4643 18.7972 7.74854 18.6492 7.99976C18.5052 8.24694 18.3046 8.44087 18.0474 8.58156C17.7943 8.72227 17.5071 8.79157 17.1858 8.78947ZM17.1891 8.27698C17.3966 8.27834 17.5819 8.23277 17.7452 8.14029C17.9126 8.04376 18.0437 7.91038 18.1383 7.74016C18.233 7.56588 18.2811 7.36688 18.2826 7.14317C18.284 6.91947 18.2385 6.72189 18.1461 6.55045C18.0537 6.37494 17.9244 6.23987 17.7583 6.14523C17.5962 6.05062 17.4114 6.00263 17.204 6.00128C16.9965 5.99992 16.8091 6.04547 16.6418 6.13793C16.4785 6.23042 16.3474 6.3638 16.2487 6.53806C16.154 6.70827 16.1059 6.90524 16.1045 7.12894C16.103 7.35265 16.1485 7.55226 16.2409 7.72777C16.3374 7.89924 16.4667 8.03431 16.6287 8.13299C16.7949 8.22763 16.9817 8.27563 17.1891 8.27698ZM22.7539 4.26204L22.7244 8.78905L22.1631 8.78538L22.1664 8.27289C22.0351 8.45101 21.8695 8.58619 21.6696 8.67844C21.4696 8.77069 21.2497 8.81603 21.0097 8.81446C20.6965 8.81241 20.4163 8.74143 20.1691 8.60152C19.9219 8.46161 19.7279 8.26713 19.5872 8.01809C19.4506 7.76501 19.3833 7.47577 19.3854 7.15038C19.3876 6.82499 19.4586 6.53869 19.5985 6.29148C19.7425 6.0443 19.939 5.85238 20.188 5.7157C20.437 5.57903 20.7181 5.51172 21.0313 5.51377C21.2631 5.51528 21.4764 5.56142 21.671 5.65218C21.8657 5.73887 22.0276 5.86805 22.1566 6.03974L22.1682 4.25822L22.7539 4.26204ZM21.0619 8.30229C21.2652 8.30361 21.4506 8.25805 21.618 8.16559C21.7854 8.06906 21.9164 7.93569 22.0111 7.76547C22.1058 7.59118 22.1539 7.39218 22.1553 7.16848C22.1568 6.94477 22.1113 6.7472 22.0189 6.57575C21.9265 6.40025 21.7972 6.26517 21.631 6.17053C21.4649 6.07589 21.2801 6.02791 21.0767 6.02658C20.8693 6.02522 20.6819 6.07078 20.5145 6.16324C20.3512 6.25572 20.2202 6.3891 20.1214 6.56336C20.0268 6.73358 19.9787 6.93054 19.9772 7.15425C19.9758 7.37795 20.0212 7.57756 20.1137 7.75307C20.2102 7.92454 20.3394 8.05961 20.5015 8.15829C20.6676 8.25293 20.8544 8.30093 21.0619 8.30229ZM26.8676 5.58241L26.8465 8.81598L26.2913 8.81236L26.2945 8.32427C26.1755 8.49026 26.018 8.6194 25.8222 8.71167C25.6304 8.7999 25.4207 8.84328 25.1929 8.84179C24.7617 8.83897 24.4229 8.7188 24.1763 8.48127C23.9298 8.23967 23.808 7.88703 23.811 7.42335L23.8232 5.56252L24.4089 5.56634L24.3972 7.36006C24.3951 7.67325 24.4688 7.91169 24.6183 8.07536C24.7677 8.23498 24.9828 8.3157 25.2634 8.31753C25.5725 8.31955 25.8172 8.2276 25.9974 8.04167C26.1776 7.85574 26.2688 7.59194 26.271 7.25028L26.2819 5.57858L26.8676 5.58241ZM29.3706 8.86908C29.0412 8.86693 28.7468 8.79382 28.4874 8.64976C28.2321 8.50573 28.032 8.30918 27.8872 8.06011C27.7424 7.80698 27.6711 7.52178 27.6731 7.20453C27.6752 6.88727 27.7503 6.60506 27.8983 6.35791C28.0464 6.10669 28.249 5.91277 28.5062 5.77615C28.7674 5.63549 29.0628 5.56624 29.3922 5.56839C29.6851 5.57031 29.945 5.63098 30.172 5.75043C30.4031 5.8699 30.5809 6.0419 30.7055 6.26643L30.2583 6.55027C30.1576 6.39504 30.0323 6.2783 29.8823 6.20003C29.7323 6.12177 29.5658 6.08204 29.3828 6.08085C29.1713 6.07946 28.9798 6.12499 28.8083 6.21742C28.641 6.30988 28.5079 6.44324 28.4091 6.6175C28.3145 6.78772 28.2664 6.98469 28.2649 7.20839C28.2635 7.43617 28.3089 7.63781 28.4013 7.81332C28.4978 7.98479 28.6292 8.11784 28.7953 8.21248C28.9655 8.30715 29.1564 8.35517 29.3679 8.35655C29.5509 8.35775 29.7179 8.3202 29.8689 8.2439C30.0199 8.1676 30.1468 8.05251 30.2495 7.89861L30.693 8.18217C30.5655 8.40505 30.3854 8.57675 30.1527 8.69725C29.9242 8.81372 29.6635 8.871 29.3706 8.86908ZM33.3081 8.66906C33.2222 8.74171 33.1161 8.79797 32.9897 8.83782C32.8634 8.8736 32.7331 8.89105 32.5989 8.89017C32.2735 8.88805 32.0219 8.79895 31.8441 8.62288C31.6662 8.44682 31.5784 8.19609 31.5805 7.8707L31.5921 6.09528L31.043 6.09169L31.0462 5.60971L31.5953 5.61329L31.5999 4.90557L32.1856 4.90939L32.181 5.61712L33.1083 5.62318L33.1052 6.10517L32.1778 6.09911L32.1664 7.85012C32.1652 8.02502 32.2071 8.15952 32.2919 8.25363C32.3807 8.34776 32.5065 8.39536 32.6692 8.39642C32.8482 8.39759 33.001 8.34775 33.1278 8.24689L33.3081 8.66906ZM35.7668 4.60332L37.5666 4.61508C38.0181 4.61803 38.4181 4.71013 38.7667 4.89138C39.1154 5.07263 39.3842 5.32657 39.5732 5.65321C39.7664 5.97581 39.8616 6.34658 39.8588 6.76553C39.8561 7.18447 39.756 7.556 39.5587 7.88011C39.3654 8.20019 39.0933 8.44856 38.7423 8.62524C38.3914 8.80192 37.9902 8.88879 37.5387 8.88584L35.7388 8.87408L35.7668 4.60332ZM37.5055 8.35481C37.8513 8.35706 38.1547 8.29193 38.4159 8.15941C38.6812 8.02691 38.8858 7.84114 39.0297 7.60209C39.1736 7.35898 39.2467 7.0788 39.2487 6.76154C39.2508 6.44428 39.1814 6.1652 39.0406 5.9243C38.8999 5.67932 38.6977 5.48886 38.4342 5.35291C38.1748 5.21698 37.8722 5.14789 37.5265 5.14563L36.3734 5.1381L36.3524 8.34727L37.5055 8.35481ZM43.6268 7.32706C43.6266 7.3718 43.6221 7.43075 43.6135 7.50391L40.99 7.48677C41.0248 7.77173 41.1473 8.00235 41.3577 8.17863C41.5721 8.35087 41.838 8.43802 42.1553 8.4401C42.5417 8.44262 42.8537 8.3145 43.0913 8.05573L43.4122 8.43611C43.2646 8.60598 43.0807 8.73494 42.8605 8.82299C42.6443 8.91106 42.402 8.95422 42.1336 8.95247C41.7919 8.95024 41.4894 8.87911 41.2259 8.73909C40.9624 8.59501 40.7583 8.3964 40.6135 8.14326C40.4728 7.89015 40.4035 7.60497 40.4056 7.28771C40.4076 6.97452 40.4786 6.69229 40.6186 6.44102C40.7626 6.18977 40.9571 5.9958 41.202 5.8591C41.451 5.71836 41.7301 5.649 42.0392 5.65102C42.3484 5.65304 42.6224 5.72601 42.8615 5.86994C43.1046 6.00983 43.2925 6.2063 43.4251 6.45935C43.5617 6.71243 43.629 7.00167 43.6268 7.32706ZM42.036 6.14521C41.7554 6.14338 41.5189 6.22725 41.3266 6.39683C41.1384 6.56644 41.0271 6.78943 40.9928 7.0658L43.0671 7.07935C43.0364 6.80662 42.926 6.58422 42.7359 6.41214C42.55 6.23602 42.3167 6.14704 42.036 6.14521ZM45.3568 8.97353C45.0925 8.9718 44.8385 8.93557 44.5949 8.86483C44.3513 8.79002 44.1607 8.69725 44.0232 8.58653L44.2702 8.12444C44.4119 8.22706 44.5843 8.30953 44.7872 8.37187C44.9902 8.43421 45.1954 8.46606 45.4029 8.46742C45.9153 8.47076 46.1725 8.32601 46.1745 8.03316C46.1751 7.93554 46.141 7.85804 46.0723 7.80064C46.0035 7.74324 45.9163 7.702 45.8107 7.6769C45.7092 7.64777 45.563 7.61631 45.372 7.58252C45.112 7.54014 44.8987 7.49197 44.7323 7.43801C44.57 7.38407 44.4302 7.29367 44.3131 7.16681C44.196 7.03995 44.1382 6.86263 44.1396 6.63486C44.1416 6.34201 44.2651 6.10893 44.5103 5.93562C44.7555 5.75825 45.0835 5.67091 45.4943 5.67359C45.7099 5.675 45.9253 5.70285 46.1405 5.75713C46.3557 5.81142 46.5322 5.88375 46.6699 5.97414L46.4167 6.43619C46.1535 6.26363 45.8429 6.17618 45.485 6.17384C45.2368 6.17222 45.0474 6.21166 44.9168 6.29216C44.7861 6.37266 44.7203 6.48002 44.7194 6.61424C44.7187 6.71999 44.7548 6.80361 44.8276 6.8651C44.9004 6.92659 44.9896 6.97192 45.0952 7.00108C45.2048 7.03027 45.3571 7.06381 45.5521 7.10169C45.8121 7.14813 46.0213 7.19831 46.1796 7.25222C46.3419 7.30209 46.4797 7.38841 46.5928 7.51118C46.7059 7.63394 46.7617 7.80514 46.7602 8.02478C46.7583 8.31764 46.6307 8.55069 46.3774 8.72394C46.1282 8.89315 45.788 8.97634 45.3568 8.97353ZM47.5073 5.71725L48.093 5.72108L48.0719 8.95466L47.4862 8.95083L47.5073 5.71725ZM47.8043 5.09686C47.6904 5.09611 47.595 5.05888 47.5182 4.98516C47.4455 4.91147 47.4095 4.82175 47.4102 4.716C47.4108 4.61024 47.448 4.521 47.5217 4.44827C47.5995 4.37149 47.6954 4.33348 47.8092 4.33422C47.9231 4.33496 48.0164 4.37218 48.0892 4.44587C48.166 4.51552 48.2041 4.60322 48.2034 4.70898C48.2027 4.8188 48.1634 4.91209 48.0856 4.98887C48.0119 5.0616 47.9181 5.0976 47.8043 5.09686ZM52.3046 5.7486L52.2863 8.54289C52.2827 9.10826 52.1396 9.52425 51.8572 9.79087C51.5748 10.0615 51.1549 10.1951 50.5977 10.1914C50.2926 10.1894 50.0021 10.1448 49.7261 10.0576C49.45 9.97445 49.2271 9.85504 49.0573 9.69936L49.3409 9.24971C49.4905 9.38085 49.6749 9.48374 49.8941 9.55839C50.1173 9.63713 50.3468 9.67728 50.5827 9.67882C50.961 9.68129 51.2402 9.59363 51.4204 9.41583C51.6046 9.23806 51.6979 8.96614 51.7002 8.60008L51.7019 8.34383C51.5625 8.50969 51.3909 8.63467 51.187 8.71875C50.9871 8.7988 50.7692 8.83805 50.5333 8.83651C50.2242 8.83449 49.944 8.76758 49.6927 8.63577C49.4454 8.49993 49.2514 8.31359 49.1106 8.07675C48.9698 7.83584 48.9004 7.56286 48.9024 7.25781C48.9044 6.95275 48.9773 6.68274 49.1212 6.44776C49.2652 6.20871 49.4616 6.02492 49.7106 5.89638C49.9636 5.76788 50.2447 5.70463 50.5538 5.70665C50.7978 5.70824 51.0233 5.75446 51.2301 5.8453C51.4411 5.93616 51.6131 6.06948 51.7461 6.24526L51.7494 5.74497L52.3046 5.7486ZM50.6038 8.32446C50.8153 8.32584 51.0047 8.28233 51.1721 8.19394C51.3435 8.10557 51.4765 7.98238 51.5711 7.82436C51.6698 7.66231 51.7198 7.47959 51.7211 7.27622C51.7231 6.96303 51.6211 6.71018 51.4149 6.51765C51.2087 6.32106 50.9429 6.22171 50.6176 6.21958C50.2881 6.21743 50.019 6.31329 49.8103 6.50717C49.6016 6.69698 49.4962 6.94848 49.4942 7.26167C49.4929 7.46504 49.5384 7.64838 49.6309 7.81169C49.7275 7.97095 49.8589 8.09587 50.0251 8.18645C50.1953 8.27704 50.3882 8.32305 50.6038 8.32446ZM55.1505 5.73668C55.5613 5.73937 55.8859 5.86148 56.1244 6.10302C56.3669 6.34053 56.4866 6.68909 56.4836 7.1487L56.4714 9.00953L55.8857 9.00571L55.8975 7.21199C55.8995 6.8988 55.8258 6.6624 55.6763 6.50279C55.5269 6.34317 55.3118 6.26245 55.0312 6.26062C54.7139 6.25855 54.4632 6.35046 54.2789 6.53637C54.0947 6.7182 54.0014 6.98199 53.9992 7.32771L53.9883 8.99331L53.4026 8.98948L53.4237 5.75591L53.985 5.75957L53.9818 6.24766C54.1009 6.08167 54.2603 5.95458 54.4602 5.8664C54.6642 5.77825 54.8943 5.73501 55.1505 5.73668Z" fill="#8A8A8A"/>
</svg>
