<svg width="69" height="14" viewBox="0 0 69 14" fill="none" xmlns="http://www.w3.org/2000/svg">
<rect x="0.0424805" y="0.223022" width="68.3211" height="13.2208" rx="6.61042" fill="#9D9D9D" fill-opacity="0.25"/>
<path d="M11.0712 8.82849C10.5018 8.82473 10.0595 8.65911 9.74433 8.33163C9.42918 8.00415 9.27358 7.53535 9.27753 6.92524L9.29325 4.49701L9.90336 4.50103L9.8878 6.90486C9.88187 7.82002 10.2795 8.28025 11.0808 8.28553C11.4713 8.2881 11.771 8.17822 11.9799 7.95588C12.1888 7.72948 12.2947 7.38443 12.2977 6.92075L12.3133 4.51692L12.9051 4.52082L12.8894 6.94905C12.8854 7.56323 12.7237 8.03197 12.4044 8.35527C12.085 8.6745 11.6406 8.83224 11.0712 8.82849ZM14.97 8.84199C14.7056 8.84024 14.4516 8.804 14.208 8.73324C13.9644 8.65842 13.7739 8.56564 13.6363 8.45491L13.8833 7.99284C14.025 8.09546 14.1974 8.17795 14.4003 8.2403C14.6033 8.30265 14.8085 8.33451 15.016 8.33588C15.5285 8.33926 15.7856 8.19452 15.7875 7.90167C15.7882 7.80405 15.7541 7.72654 15.6853 7.66914C15.6165 7.61174 15.5294 7.57049 15.4238 7.54539C15.3223 7.51625 15.176 7.48478 14.9851 7.45098C14.725 7.40859 14.5118 7.36041 14.3454 7.30643C14.183 7.25248 14.0433 7.16207 13.9261 7.03521C13.809 6.90834 13.7512 6.73102 13.7526 6.50325C13.7545 6.21039 13.8781 5.97732 14.1233 5.80403C14.3685 5.62668 14.6965 5.53935 15.1073 5.54206C15.3228 5.54348 15.5382 5.57134 15.7535 5.62564C15.9687 5.67994 16.1452 5.75228 16.2829 5.84268L16.0297 6.30471C15.7665 6.13214 15.4559 6.04467 15.0979 6.04231C14.8498 6.04067 14.6604 6.0801 14.5297 6.16059C14.3991 6.24108 14.3333 6.34844 14.3324 6.48266C14.3317 6.58841 14.3678 6.67204 14.4406 6.73353C14.5134 6.79502 14.6026 6.84036 14.7082 6.86952C14.8178 6.89872 14.9701 6.93226 15.1651 6.97016C15.4252 7.01662 15.6343 7.06681 15.7926 7.12073C15.955 7.17061 16.0927 7.25694 16.2058 7.37971C16.3189 7.50248 16.3747 7.67369 16.3733 7.89333C16.3714 8.18618 16.2438 8.41922 15.9905 8.59246C15.7413 8.76165 15.4011 8.84483 14.97 8.84199ZM20.0321 7.2402C20.0318 7.28494 20.0274 7.34389 20.0188 7.41705L17.3953 7.39975C17.4301 7.68471 17.5526 7.91534 17.763 8.09163C17.9775 8.26388 18.2433 8.35105 18.5606 8.35314C18.947 8.35569 19.259 8.22759 19.4966 7.96883L19.8175 8.34923C19.67 8.51909 19.4861 8.64804 19.2659 8.73608C19.0497 8.82414 18.8074 8.86729 18.539 8.86552C18.1973 8.86326 17.8947 8.79212 17.6312 8.65209C17.3678 8.50798 17.1637 8.30936 17.0189 8.05622C16.8781 7.8031 16.8088 7.51791 16.8109 7.20066C16.8129 6.88747 16.8839 6.60524 17.0238 6.35397C17.1678 6.10273 17.3622 5.90877 17.6072 5.77209C17.8562 5.63137 18.1353 5.56202 18.4444 5.56406C18.7535 5.5661 19.0276 5.63909 19.2667 5.78303C19.5098 5.92293 19.6977 6.11941 19.8303 6.37247C19.9669 6.62556 20.0342 6.91481 20.0321 7.2402ZM18.4412 6.05825C18.1606 6.0564 17.9241 6.14026 17.7318 6.30983C17.5436 6.47943 17.4324 6.70241 17.398 6.97878L19.4724 6.99245C19.4416 6.71972 19.3312 6.49731 19.1411 6.32522C18.9552 6.14909 18.7219 6.0601 18.4412 6.05825ZM21.4138 6.15716C21.5167 5.97073 21.6681 5.82937 21.868 5.73306C22.068 5.63676 22.3103 5.58955 22.595 5.59142L22.5913 6.15883C22.5588 6.15454 22.5141 6.15222 22.4572 6.15184C22.1399 6.14975 21.8891 6.24368 21.7049 6.43364C21.5247 6.61956 21.4335 6.88742 21.4312 7.23722L21.4208 8.84791L20.8351 8.84405L20.856 5.61047L21.4173 5.61417L21.4138 6.15716ZM28.1641 8.36155L28.1607 8.89234L25.0614 8.87191L25.089 4.60114L28.1029 4.62101L28.0995 5.15181L25.6957 5.13596L25.6872 6.4477L27.8287 6.46181L27.8253 6.98041L25.6838 6.96629L25.6749 8.34513L28.1641 8.36155ZM31.0539 8.91141L30.1284 7.66674L29.1747 8.89903L28.5219 8.89472L29.8077 7.24973L28.6039 5.66155L29.2567 5.66585L30.1399 6.83703L31.0321 5.67755L31.6727 5.68178L30.4423 7.25392L31.7189 8.9158L31.0539 8.91141ZM34.0936 5.66723C34.4067 5.66929 34.687 5.74029 34.9342 5.88022C35.1814 6.02014 35.3733 6.21462 35.51 6.46364C35.6508 6.71269 35.7201 6.99991 35.718 7.3253C35.7159 7.6507 35.6428 7.93901 35.4988 8.19025C35.3589 8.43745 35.1645 8.62938 34.9155 8.76603C34.6665 8.90269 34.3854 8.96999 34.0722 8.96792C33.8403 8.96639 33.6271 8.92024 33.4324 8.82947C33.2419 8.73873 33.08 8.6075 32.9469 8.43579L32.9361 10.1075L32.3504 10.1036L32.379 5.68643L32.9403 5.69013L32.9369 6.20263C33.0683 6.02452 33.2339 5.89138 33.4337 5.80321C33.6336 5.71097 33.8536 5.66565 34.0936 5.66723ZM34.0267 8.45511C34.2341 8.45647 34.4195 8.41092 34.5828 8.31844C34.7502 8.22192 34.8812 8.08856 34.9759 7.91834C35.0746 7.74409 35.1247 7.54511 35.1262 7.3214C35.1276 7.0977 35.0801 6.90011 34.9836 6.72863C34.8912 6.55312 34.7619 6.41803 34.5957 6.32338C34.4336 6.22876 34.2489 6.18077 34.0414 6.1794C33.8381 6.17806 33.6527 6.22565 33.4853 6.32217C33.322 6.41464 33.191 6.54598 33.0922 6.71616C32.9976 6.88638 32.9495 7.08334 32.9481 7.30704C32.9466 7.53075 32.9921 7.73036 33.0845 7.90588C33.177 8.07732 33.3063 8.2124 33.4724 8.31112C33.6386 8.40577 33.8233 8.45377 34.0267 8.45511ZM39.4495 7.36821C39.4492 7.41295 39.4448 7.4719 39.4362 7.54506L36.8127 7.52776C36.8475 7.81272 36.9701 8.04335 37.1804 8.21964C37.3949 8.39189 37.6608 8.47906 37.978 8.48116C38.3644 8.4837 38.6764 8.3556 38.914 8.09684L39.2349 8.47724C39.0874 8.64711 38.9035 8.77606 38.6833 8.86409C38.4671 8.95215 38.2248 8.9953 37.9564 8.99353C37.6147 8.99127 37.3122 8.92013 37.0487 8.7801C36.7852 8.636 36.5811 8.43737 36.4363 8.18423C36.2956 7.93111 36.2262 7.64592 36.2283 7.32867C36.2303 7.01548 36.3013 6.73325 36.4412 6.48198C36.5852 6.23074 36.7797 6.03678 37.0246 5.9001C37.2736 5.75938 37.5527 5.69003 37.8618 5.69207C38.171 5.69411 38.445 5.7671 38.6841 5.91104C38.9273 6.05094 39.1151 6.24742 39.2477 6.50049C39.3844 6.75358 39.4516 7.04282 39.4495 7.36821ZM37.8586 6.18626C37.578 6.18441 37.3415 6.26827 37.1493 6.43784C36.961 6.60744 36.8498 6.83042 36.8154 7.10679L38.8898 7.12046C38.859 6.84773 38.7486 6.62532 38.5586 6.45323C38.3726 6.2771 38.1393 6.18811 37.8586 6.18626ZM40.8312 6.28518C40.9341 6.09875 41.0855 5.95738 41.2855 5.86108C41.4854 5.76477 41.7277 5.71756 42.0124 5.71944L42.0088 6.28684C41.9762 6.28256 41.9315 6.28023 41.8746 6.27985C41.5573 6.27776 41.3066 6.37169 41.1223 6.56166C40.9421 6.74758 40.8509 7.01543 40.8486 7.36523L40.8382 8.97592L40.2525 8.97206L40.2734 5.73848L40.8347 5.74218L40.8312 6.28518ZM42.7341 5.7547L43.3198 5.75856L43.2989 8.99214L42.7132 8.98828L42.7341 5.7547ZM43.031 5.13432C42.9171 5.13357 42.8218 5.09633 42.745 5.02261C42.6722 4.94891 42.6362 4.85919 42.6369 4.75344C42.6376 4.64769 42.6748 4.55844 42.7484 4.48571C42.8262 4.40894 42.9221 4.37093 43.0359 4.37168C43.1498 4.37243 43.2431 4.40966 43.3159 4.48335C43.3927 4.55301 43.4308 4.64071 43.4301 4.74646C43.4294 4.85628 43.3901 4.94958 43.3124 5.02635C43.2387 5.09908 43.1449 5.13507 43.031 5.13432ZM47.35 7.42029C47.3497 7.46503 47.3452 7.52398 47.3366 7.59714L44.7132 7.57985C44.7479 7.86481 44.8705 8.09543 45.0809 8.27173C45.2953 8.44398 45.5612 8.53115 45.8784 8.53324C46.2648 8.53579 46.5768 8.40768 46.8144 8.14892L47.1353 8.52932C46.9878 8.69919 46.8039 8.82814 46.5837 8.91617C46.3676 9.00424 46.1253 9.04738 45.8568 9.04561C45.5152 9.04336 45.2126 8.97222 44.9491 8.83218C44.6856 8.68808 44.4815 8.48946 44.3367 8.23631C44.196 7.9832 44.1267 7.69801 44.1287 7.38075C44.1307 7.06756 44.2017 6.78534 44.3416 6.53407C44.4856 6.28283 44.6801 6.08887 44.925 5.95218C45.1741 5.81146 45.4531 5.74212 45.7623 5.74416C46.0714 5.74619 46.3455 5.81918 46.5845 5.96313C46.8277 6.10303 47.0156 6.29951 47.1481 6.55257C47.2848 6.80566 47.3521 7.0949 47.35 7.42029ZM45.7591 6.23835C45.4784 6.2365 45.242 6.32036 45.0497 6.48993C44.8615 6.65952 44.7502 6.88251 44.7159 7.15887L46.7903 7.17255C46.7595 6.89982 46.6491 6.67741 46.459 6.50532C46.273 6.32919 46.0397 6.2402 45.7591 6.23835ZM49.9007 5.77144C50.3115 5.77415 50.6361 5.89628 50.8745 6.13784C51.117 6.37536 51.2368 6.72392 51.2338 7.18354L51.2218 9.04437L50.6361 9.04051L50.6477 7.24679C50.6497 6.9336 50.576 6.6972 50.4265 6.53758C50.2771 6.37796 50.062 6.29722 49.7813 6.29537C49.4641 6.29328 49.2133 6.38518 49.0291 6.57107C48.8449 6.7529 48.7516 7.01668 48.7494 7.3624L48.7386 9.028L48.1529 9.02414L48.1739 5.79056L48.7352 5.79426L48.732 6.28235C48.851 6.11636 49.0105 5.98929 49.2104 5.90112C49.4143 5.81298 49.6444 5.76975 49.9007 5.77144ZM53.7327 9.09753C53.4032 9.09536 53.1088 9.02224 52.8494 8.87816C52.5941 8.73412 52.394 8.53755 52.2492 8.28848C52.1044 8.03533 52.033 7.75013 52.0351 7.43288C52.0372 7.11562 52.1122 6.83342 52.2602 6.58627C52.4083 6.33506 52.6109 6.14115 52.868 6.00455C53.1293 5.86391 53.4246 5.79467 53.7541 5.79684C54.0469 5.79877 54.3069 5.85947 54.5339 5.97892C54.7649 6.09841 54.9428 6.27042 55.0674 6.49496L54.6202 6.77877C54.5195 6.62354 54.3942 6.50679 54.2442 6.42851C54.0942 6.35024 53.9277 6.3105 53.7447 6.3093C53.5331 6.3079 53.3417 6.35342 53.1702 6.44584C53.0029 6.53829 52.8698 6.67164 52.7711 6.8459C52.6764 7.01611 52.6284 7.21307 52.6269 7.43678C52.6254 7.66455 52.6709 7.8662 52.7633 8.04171C52.8598 8.21319 52.9912 8.34625 53.1573 8.4409C53.3276 8.53557 53.5184 8.58361 53.7299 8.585C53.913 8.58621 54.08 8.54867 54.231 8.47238C54.382 8.39609 54.5088 8.281 54.6115 8.12711L55.055 8.4107C54.9275 8.63357 54.7474 8.80526 54.5148 8.92575C54.2862 9.0422 54.0256 9.09946 53.7327 9.09753ZM58.6942 7.49508C58.6939 7.53982 58.6894 7.59877 58.6808 7.67193L56.0574 7.65464C56.0921 7.9396 56.2147 8.17022 56.4251 8.34651C56.6395 8.51877 56.9054 8.60594 57.2226 8.60803C57.609 8.61058 57.921 8.48247 58.1586 8.22371L58.4795 8.60411C58.332 8.77398 58.1481 8.90293 57.9279 8.99096C57.7118 9.07902 57.4695 9.12217 57.201 9.1204C56.8594 9.11815 56.5568 9.047 56.2933 8.90697C56.0298 8.76287 55.8257 8.56424 55.6809 8.3111C55.5402 8.05798 55.4709 7.7728 55.4729 7.45554C55.4749 7.14235 55.5459 6.86012 55.6858 6.60886C55.8298 6.35762 56.0243 6.16366 56.2692 6.02697C56.5183 5.88625 56.7974 5.81691 57.1065 5.81894C57.4156 5.82098 57.6897 5.89397 57.9287 6.03791C58.1719 6.17781 58.3598 6.3743 58.4923 6.62736C58.629 6.88045 58.6963 7.16969 58.6942 7.49508ZM57.1033 6.31313C56.8226 6.31128 56.5862 6.39514 56.3939 6.56471C56.2057 6.73431 56.0944 6.95729 56.0601 7.23366L58.1345 7.24734C58.1037 6.97461 57.9933 6.7522 57.8032 6.58011C57.6172 6.40397 57.3839 6.31498 57.1033 6.31313Z" fill="#8A8A8A"/>
</svg>
