<svg width="62" height="14" viewBox="0 0 62 14" fill="none" xmlns="http://www.w3.org/2000/svg">
<rect width="61.6149" height="13.2208" rx="6.61042" fill="#9D9D9D" fill-opacity="0.25"/>
<path d="M10.9012 8.70482C10.3317 8.70482 9.88839 8.54212 9.57113 8.21672C9.25386 7.89132 9.09523 7.42356 9.09523 6.81344V4.38515H9.70535V6.78903C9.70535 7.70422 10.106 8.16181 10.9073 8.16181C11.2978 8.16181 11.5967 8.04995 11.8042 7.82624C12.0116 7.59846 12.1153 7.25273 12.1153 6.78903V4.38515H12.7072V6.81344C12.7072 7.42763 12.5485 7.89742 12.2313 8.22282C11.914 8.54415 11.4706 8.70482 10.9012 8.70482ZM14.8 8.69261C14.5356 8.69261 14.2814 8.65804 14.0373 8.58889C13.7933 8.51568 13.6021 8.42416 13.4638 8.31434L13.7078 7.85064C13.8502 7.95233 14.0231 8.03368 14.2265 8.09469C14.4298 8.15571 14.6352 8.18621 14.8427 8.18621C15.3552 8.18621 15.6114 8.03978 15.6114 7.74692C15.6114 7.6493 15.5769 7.57202 15.5077 7.51508C15.4386 7.45813 15.3511 7.41746 15.2454 7.39305C15.1437 7.36458 14.9972 7.33407 14.8061 7.30154C14.5457 7.26086 14.3322 7.21408 14.1654 7.16121C14.0027 7.10833 13.8624 7.01885 13.7445 6.89275C13.6265 6.76666 13.5675 6.58973 13.5675 6.36195C13.5675 6.06909 13.6895 5.83521 13.9336 5.66031C14.1776 5.48134 14.5051 5.39185 14.9159 5.39185C15.1315 5.39185 15.347 5.41829 15.5626 5.47117C15.7782 5.52405 15.9551 5.59523 16.0934 5.68471L15.8433 6.1484C15.5789 5.97757 15.2677 5.89215 14.9098 5.89215C14.6617 5.89215 14.4725 5.93283 14.3424 6.01418C14.2122 6.09553 14.1471 6.20332 14.1471 6.33754C14.1471 6.4433 14.1837 6.52668 14.257 6.58769C14.3302 6.6487 14.4197 6.69345 14.5254 6.72192C14.6352 6.75039 14.7878 6.78293 14.983 6.81954C15.2433 6.86428 15.4528 6.91309 15.6114 6.96597C15.7741 7.01478 15.9124 7.10019 16.0263 7.22222C16.1402 7.34424 16.1971 7.51508 16.1971 7.73472C16.1971 8.02758 16.0711 8.26146 15.8189 8.43636C15.5708 8.6072 15.2311 8.69261 14.8 8.69261ZM19.8516 7.05749C19.8516 7.10223 19.8476 7.16121 19.8394 7.23442H17.2159C17.2525 7.51915 17.3766 7.74896 17.5881 7.92386C17.8037 8.09469 18.0701 8.18011 18.3873 8.18011C18.7738 8.18011 19.0849 8.04995 19.3208 7.78963L19.6442 8.16791C19.4978 8.33874 19.3147 8.4689 19.0951 8.55839C18.8795 8.64787 18.6375 8.69261 18.369 8.69261C18.0274 8.69261 17.7243 8.62347 17.46 8.48517C17.1956 8.34281 16.9902 8.14554 16.8437 7.89335C16.7014 7.64117 16.6302 7.35645 16.6302 7.03918C16.6302 6.72599 16.6993 6.4433 16.8376 6.19111C16.98 5.93893 17.1732 5.74369 17.4172 5.6054C17.6654 5.46303 17.944 5.39185 18.2531 5.39185C18.5622 5.39185 18.8368 5.46303 19.0768 5.6054C19.3208 5.74369 19.51 5.93893 19.6442 6.19111C19.7825 6.4433 19.8516 6.73209 19.8516 7.05749ZM18.2531 5.88605C17.9725 5.88605 17.7365 5.97147 17.5454 6.1423C17.3583 6.31314 17.2484 6.53685 17.2159 6.81344H19.2903C19.2578 6.54092 19.1459 6.31924 18.9548 6.1484C18.7677 5.9735 18.5338 5.88605 18.2531 5.88605ZM21.2263 5.96537C21.328 5.77826 21.4784 5.6359 21.6778 5.53828C21.8771 5.44066 22.1191 5.39185 22.4038 5.39185V5.95927C22.3713 5.9552 22.3265 5.95317 22.2696 5.95317C21.9523 5.95317 21.7022 6.04875 21.5191 6.23992C21.3402 6.42703 21.2507 6.69548 21.2507 7.04528V8.65601H20.665V5.42236H21.2263V5.96537ZM27.7467 8.65601L26.8254 7.34424C26.7115 7.35238 26.622 7.35645 26.557 7.35645H25.5015V8.65601H24.8913V4.38515H26.557C27.1101 4.38515 27.5454 4.51735 27.8626 4.78173C28.1799 5.04612 28.3385 5.41016 28.3385 5.87385C28.3385 6.20332 28.2572 6.48397 28.0945 6.71582C27.9318 6.94766 27.6999 7.11646 27.3989 7.22222L28.4117 8.65601H27.7467ZM26.5387 6.83784C26.9251 6.83784 27.22 6.75446 27.4233 6.58769C27.6267 6.42093 27.7284 6.18298 27.7284 5.87385C27.7284 5.56472 27.6267 5.32881 27.4233 5.16611C27.22 4.99934 26.9251 4.91596 26.5387 4.91596H25.5015V6.83784H26.5387ZM32.1613 7.05749C32.1613 7.10223 32.1573 7.16121 32.1491 7.23442H29.5256C29.5622 7.51915 29.6863 7.74896 29.8978 7.92386C30.1133 8.09469 30.3798 8.18011 30.697 8.18011C31.0834 8.18011 31.3946 8.04995 31.6305 7.78963L31.9539 8.16791C31.8074 8.33874 31.6244 8.4689 31.4048 8.55839C31.1892 8.64787 30.9472 8.69261 30.6787 8.69261C30.3371 8.69261 30.034 8.62347 29.7696 8.48517C29.5053 8.34281 29.2998 8.14554 29.1534 7.89335C29.0111 7.64117 28.9399 7.35645 28.9399 7.03918C28.9399 6.72599 29.009 6.4433 29.1473 6.19111C29.2897 5.93893 29.4829 5.74369 29.7269 5.6054C29.975 5.46303 30.2537 5.39185 30.5628 5.39185C30.8719 5.39185 31.1465 5.46303 31.3865 5.6054C31.6305 5.74369 31.8197 5.93893 31.9539 6.19111C32.0922 6.4433 32.1613 6.73209 32.1613 7.05749ZM30.5628 5.88605C30.2821 5.88605 30.0462 5.97147 29.8551 6.1423C29.668 6.31314 29.5581 6.53685 29.5256 6.81344H31.6C31.5675 6.54092 31.4556 6.31924 31.2644 6.1484C31.0773 5.9735 30.8435 5.88605 30.5628 5.88605ZM33.902 8.69261C33.6376 8.69261 33.3834 8.65804 33.1394 8.58889C32.8953 8.51568 32.7042 8.42416 32.5659 8.31434L32.8099 7.85064C32.9523 7.95233 33.1251 8.03368 33.3285 8.09469C33.5319 8.15571 33.7373 8.18621 33.9447 8.18621C34.4572 8.18621 34.7135 8.03978 34.7135 7.74692C34.7135 7.6493 34.6789 7.57202 34.6098 7.51508C34.5406 7.45813 34.4532 7.41746 34.3474 7.39305C34.2457 7.36458 34.0993 7.33407 33.9081 7.30154C33.6478 7.26086 33.4343 7.21408 33.2675 7.16121C33.1048 7.10833 32.9645 7.01885 32.8465 6.89275C32.7286 6.76666 32.6696 6.58973 32.6696 6.36195C32.6696 6.06909 32.7916 5.83521 33.0357 5.66031C33.2797 5.48134 33.6071 5.39185 34.0179 5.39185C34.2335 5.39185 34.4491 5.41829 34.6647 5.47117C34.8803 5.52405 35.0572 5.59523 35.1955 5.68471L34.9453 6.1484C34.6809 5.97757 34.3698 5.89215 34.0118 5.89215C33.7637 5.89215 33.5746 5.93283 33.4444 6.01418C33.3143 6.09553 33.2492 6.20332 33.2492 6.33754C33.2492 6.4433 33.2858 6.52668 33.359 6.58769C33.4322 6.6487 33.5217 6.69345 33.6275 6.72192C33.7373 6.75039 33.8898 6.78293 34.0851 6.81954C34.3454 6.86428 34.5549 6.91309 34.7135 6.96597C34.8762 7.01478 35.0145 7.10019 35.1284 7.22222C35.2423 7.34424 35.2992 7.51508 35.2992 7.73472C35.2992 8.02758 35.1731 8.26146 34.9209 8.43636C34.6728 8.6072 34.3332 8.69261 33.902 8.69261ZM38.9537 7.05749C38.9537 7.10223 38.9496 7.16121 38.9415 7.23442H36.318C36.3546 7.51915 36.4786 7.74896 36.6901 7.92386C36.9057 8.09469 37.1721 8.18011 37.4894 8.18011C37.8758 8.18011 38.187 8.04995 38.4229 7.78963L38.7463 8.16791C38.5998 8.33874 38.4168 8.4689 38.1971 8.55839C37.9816 8.64787 37.7396 8.69261 37.4711 8.69261C37.1294 8.69261 36.8264 8.62347 36.562 8.48517C36.2976 8.34281 36.0922 8.14554 35.9458 7.89335C35.8034 7.64117 35.7322 7.35645 35.7322 7.03918C35.7322 6.72599 35.8014 6.4433 35.9397 6.19111C36.0821 5.93893 36.2753 5.74369 36.5193 5.6054C36.7674 5.46303 37.046 5.39185 37.3552 5.39185C37.6643 5.39185 37.9389 5.46303 38.1788 5.6054C38.4229 5.74369 38.612 5.93893 38.7463 6.19111C38.8845 6.4433 38.9537 6.73209 38.9537 7.05749ZM37.3552 5.88605C37.0745 5.88605 36.8386 5.97147 36.6474 6.1423C36.4603 6.31314 36.3505 6.53685 36.318 6.81344H38.3924C38.3598 6.54092 38.248 6.31924 38.0568 6.1484C37.8697 5.9735 37.6358 5.88605 37.3552 5.88605ZM40.8552 5.39185C41.3026 5.39185 41.6443 5.50168 41.8802 5.72132C42.1202 5.94096 42.2402 6.2684 42.2402 6.70362V8.65601H41.6849V8.22892C41.5873 8.37942 41.447 8.49534 41.264 8.57669C41.085 8.65397 40.8714 8.69261 40.6233 8.69261C40.2613 8.69261 39.9705 8.60516 39.7509 8.43026C39.5353 8.25536 39.4275 8.02555 39.4275 7.74082C39.4275 7.4561 39.5312 7.22832 39.7387 7.05749C39.9461 6.88258 40.2756 6.79513 40.727 6.79513H41.6544V6.67921C41.6544 6.42703 41.5812 6.23382 41.4348 6.09959C41.2884 5.96537 41.0728 5.89825 40.7881 5.89825C40.5969 5.89825 40.4098 5.93079 40.2267 5.99587C40.0437 6.05689 39.8891 6.14027 39.7631 6.24602L39.519 5.80674C39.6858 5.67251 39.8851 5.57082 40.1169 5.50168C40.3488 5.42846 40.5949 5.39185 40.8552 5.39185ZM40.7209 8.24112C40.9447 8.24112 41.1379 8.19231 41.3006 8.09469C41.4633 7.99301 41.5812 7.85064 41.6544 7.66761V7.21612H40.7515C40.2552 7.21612 40.0071 7.38288 40.0071 7.71642C40.0071 7.87912 40.0702 8.00724 40.1962 8.10079C40.3223 8.19435 40.4972 8.24112 40.7209 8.24112ZM43.8854 5.96537C43.9871 5.77826 44.1376 5.6359 44.3369 5.53828C44.5362 5.44066 44.7782 5.39185 45.0629 5.39185V5.95927C45.0304 5.9552 44.9856 5.95317 44.9287 5.95317C44.6114 5.95317 44.3613 6.04875 44.1782 6.23992C43.9993 6.42703 43.9098 6.69548 43.9098 7.04528V8.65601H43.3241V5.42236H43.8854V5.96537ZM47.1644 8.69261C46.8349 8.69261 46.54 8.62143 46.2797 8.47907C46.0235 8.33671 45.8221 8.14147 45.6757 7.89335C45.5293 7.64117 45.4561 7.35645 45.4561 7.03918C45.4561 6.72192 45.5293 6.43923 45.6757 6.19111C45.8221 5.93893 46.0235 5.74369 46.2797 5.6054C46.54 5.46303 46.8349 5.39185 47.1644 5.39185C47.4573 5.39185 47.7176 5.45083 47.9454 5.56879C48.1772 5.68675 48.3562 5.85758 48.4823 6.08129L48.0369 6.36805C47.9352 6.21348 47.8091 6.09756 47.6586 6.02028C47.5081 5.943 47.3413 5.90436 47.1583 5.90436C46.9468 5.90436 46.7556 5.95113 46.5848 6.04468C46.418 6.13824 46.2858 6.27246 46.1882 6.44736C46.0947 6.6182 46.0479 6.81547 46.0479 7.03918C46.0479 7.26696 46.0947 7.4683 46.1882 7.6432C46.2858 7.81404 46.418 7.94623 46.5848 8.03978C46.7556 8.13333 46.9468 8.18011 47.1583 8.18011C47.3413 8.18011 47.5081 8.14147 47.6586 8.06419C47.8091 7.98691 47.9352 7.87098 48.0369 7.71642L48.4823 7.99707C48.3562 8.22079 48.1772 8.39365 47.9454 8.51568C47.7176 8.63363 47.4573 8.69261 47.1644 8.69261ZM50.9255 5.39185C51.3363 5.39185 51.6617 5.51184 51.9017 5.75183C52.1458 5.98774 52.2678 6.33551 52.2678 6.79513V8.65601H51.6821V6.86225C51.6821 6.54905 51.6068 6.31314 51.4563 6.15451C51.3058 5.99587 51.0903 5.91656 50.8096 5.91656C50.4923 5.91656 50.2422 6.01011 50.0592 6.19721C49.8761 6.38025 49.7846 6.64464 49.7846 6.99037V8.65601H49.1989V4.1289H49.7846V5.87995C49.9066 5.72539 50.0653 5.6054 50.2605 5.51998C50.4598 5.43456 50.6815 5.39185 50.9255 5.39185Z" fill="#8A8A8A"/>
</svg>
